<svg width="1920" height="1080" viewBox="0 0 1920 1080" fill="none" xmlns="http://www.w3.org/2000/svg">
<rect width="1920" height="1080" fill="#E5E5E5"/>
<g filter="url(#filter0_ii)">
<rect width="1920" height="1080" fill="#303030"/>
<g filter="url(#filter1_ddii)">
<rect x="307" y="74" width="256" height="256" rx="128" fill="#303030"/>
<rect x="307" y="74" width="256" height="256" rx="128" fill="url(#paint0_linear)"/>
<path d="M355 118C353.939 118 352.922 118.422 352.172 119.172C351.422 119.922 351 120.939 351 122V282C351 283.061 351.422 284.078 352.172 284.828C352.922 285.578 353.939 286 355 286H515C516.061 286 517.078 285.578 517.828 284.828C518.578 284.078 519 283.061 519 282V122C519 120.939 518.578 119.922 517.828 119.172C517.078 118.422 516.061 118 515 118H355ZM359 126H511V278H359V126ZM395 194V207.781H415V270H431V207.781H451V194H395ZM481.766 194.039C469.307 193.989 455.07 197.765 455.07 215.297C455.07 238.217 485.953 238.222 485.953 248.562C485.953 249.543 486.369 256.664 475.469 256.664C464.569 256.664 455.484 249.812 455.484 249.812V266.445C455.484 266.445 503.008 281.816 503.008 247.156C503.004 224.656 471.836 225.782 471.836 214.602C471.836 210.27 474.913 206.219 483.438 206.219C491.962 206.219 499.508 211.25 499.508 211.25L500.07 196.43C500.07 196.43 491.456 194.078 481.766 194.039Z" fill="#4A90E2"/>
</g>
<g filter="url(#filter2_ddii)">
<rect x="307" y="750" width="256" height="256" rx="128" fill="#303030"/>
<rect x="307" y="750" width="256" height="256" rx="128" fill="url(#paint1_linear)"/>
<path d="M435 809.25C386.675 809.25 347.5 835.831 347.5 868.625C347.5 898.532 380.111 923.204 422.5 927.329V940.5H447.5V927.329C455.774 926.524 463.665 924.951 471.023 922.69L480.813 940.5H510L493.13 912.912C511.113 902.038 522.5 886.257 522.5 868.625C522.5 835.831 483.325 809.25 435 809.25ZM444.375 828C480.619 828 510 847.588 510 871.75C510 885.063 501.05 896.966 486.978 904.99C485.558 903.816 483.994 902.85 482.29 902.121C494.588 899.115 503.75 888.098 503.75 874.875C503.75 859.344 491.156 846.75 475.625 846.75H422.5V912.961C397.026 906.95 378.75 890.792 378.75 871.75C378.75 847.588 408.131 828 444.375 828ZM447.5 865.5H469.375C474.55 865.5 478.75 869.7 478.75 874.875C478.75 880.05 474.55 884.25 469.375 884.25H447.5V865.5ZM447.5 903H454.556C458.043 903 461.242 904.9 462.917 907.956L465.737 913.083C459.978 914.406 453.859 915.19 447.5 915.39V903Z" fill="#4A90E2"/>
</g>
<g filter="url(#filter3_ddii)">
<g clip-path="url(#clip0)">
<rect x="132" y="412" width="256" height="256" rx="128" fill="#303030"/>
<rect x="132" y="412" width="256" height="256" rx="128" fill="url(#paint2_linear)"/>
<path d="M193.77 561.95V564.02L155.7 544.76V543.59L193.77 524.51V526.49L158.49 544.22L193.77 561.95ZM316.121 565.91L331.061 515.24L332.681 515.69L317.831 566.45L316.121 565.91ZM338.952 564.02V561.95L374.232 544.22L338.952 526.49V524.51L377.022 543.59V544.76L338.952 564.02Z" fill="#FF6767"/>
<path d="M221.1 558H212.65V557H215.65L222.7 547.65L214 536H212V535H225.15V536H222.65L228.35 543.65L234.45 536H230.45V535H238.85V536H235.85L228.95 544.5L238.3 557H240.3V558H227.2V557H229.7L223.4 548.6L217.05 557H221.1V558ZM284.809 557H287.309V558H274.809V557H277.309V543C277.309 540.633 276.959 538.95 276.259 537.95C275.559 536.95 274.509 536.45 273.109 536.45C272.309 536.45 271.475 536.683 270.609 537.15C269.742 537.617 269.025 538.267 268.459 539.1C268.859 540.3 269.059 541.967 269.059 544.1V557H271.559V558H258.559V557H261.559V543C261.559 540.633 261.209 538.95 260.509 537.95C259.809 536.95 258.759 536.45 257.359 536.45C255.459 536.45 253.942 537.45 252.809 539.45V557H255.309V558H242.809V557H245.309V536H242.809V535H252.809V537.6C253.442 536.733 254.425 536 255.759 535.4C257.125 534.767 258.592 534.45 260.159 534.45C264.125 534.45 266.709 535.567 267.909 537.8C268.775 536.733 269.925 535.917 271.359 535.35C272.792 534.75 274.309 534.45 275.909 534.45C281.842 534.45 284.809 537.667 284.809 544.1V557ZM300.807 557H303.307V558H290.807V557H293.307V525.5H290.807V524.5H300.807V557Z" fill="white"/>
</g>
</g>
<g filter="url(#filter4_ddii)">
<rect x="1007" y="74" width="256" height="256" rx="128" fill="#303030"/>
<rect x="1007" y="74" width="256" height="256" rx="128" fill="url(#paint3_linear)"/>
<rect x="1007" y="74" width="256" height="256" rx="128" fill="#A8FFCB" fill-opacity="0.2"/>
<g filter="url(#filter5_d)">
<path d="M1073.2 209.311C1065.16 206.999 1059.3 204.167 1055.62 200.814C1051.98 197.429 1050.15 193.262 1050.15 188.314C1050.15 182.715 1052.38 178.093 1056.84 174.447C1061.33 170.769 1067.16 168.93 1074.32 168.93C1079.21 168.93 1083.55 169.874 1087.36 171.762C1091.2 173.65 1094.16 176.254 1096.25 179.574C1098.36 182.895 1099.42 186.524 1099.42 190.463H1090C1090 186.166 1088.63 182.797 1085.89 180.355C1083.16 177.882 1079.3 176.645 1074.32 176.645C1069.7 176.645 1066.09 177.67 1063.48 179.721C1060.91 181.739 1059.62 184.555 1059.62 188.168C1059.62 191.065 1060.85 193.523 1063.29 195.541C1065.76 197.527 1069.94 199.35 1075.84 201.01C1081.76 202.67 1086.38 204.509 1089.7 206.527C1093.06 208.513 1095.53 210.84 1097.12 213.51C1098.75 216.179 1099.57 219.32 1099.57 222.934C1099.57 228.695 1097.32 233.318 1092.83 236.801C1088.34 240.251 1082.33 241.977 1074.81 241.977C1069.93 241.977 1065.37 241.049 1061.14 239.193C1056.91 237.305 1053.64 234.734 1051.32 231.479C1049.05 228.223 1047.91 224.529 1047.91 220.395H1057.33C1057.33 224.691 1058.91 228.093 1062.07 230.6C1065.26 233.074 1069.5 234.311 1074.81 234.311C1079.76 234.311 1083.55 233.301 1086.19 231.283C1088.82 229.265 1090.14 226.514 1090.14 223.031C1090.14 219.548 1088.92 216.863 1086.48 214.975C1084.04 213.054 1079.61 211.166 1073.2 209.311ZM1165.92 207.748C1165.92 214.617 1164.83 220.541 1162.65 225.521C1160.47 230.469 1157.41 234.343 1153.47 237.143L1166.17 247.104L1159.77 253.012L1144.78 241.098C1142.44 241.684 1139.96 241.977 1137.36 241.977C1131.76 241.977 1126.8 240.609 1122.47 237.875C1118.14 235.108 1114.77 231.186 1112.36 226.107C1109.98 220.997 1108.76 215.089 1108.7 208.383V203.256C1108.7 196.42 1109.89 190.382 1112.26 185.141C1114.64 179.9 1117.99 175.896 1122.32 173.129C1126.68 170.329 1131.66 168.93 1137.26 168.93C1142.99 168.93 1148.02 170.313 1152.35 173.08C1156.71 175.847 1160.06 179.835 1162.41 185.043C1164.75 190.219 1165.92 196.273 1165.92 203.207V207.748ZM1156.55 203.158C1156.55 194.792 1154.87 188.347 1151.52 183.822C1148.2 179.265 1143.45 176.986 1137.26 176.986C1131.37 176.986 1126.71 179.249 1123.3 183.773C1119.91 188.266 1118.17 194.516 1118.07 202.523V207.748C1118.07 215.886 1119.76 222.299 1123.15 226.986C1126.57 231.674 1131.3 234.018 1137.36 234.018C1143.41 234.018 1148.1 231.82 1151.42 227.426C1154.74 222.999 1156.45 216.667 1156.55 208.432V203.158ZM1189.8 233.334H1223.49V241H1180.38V169.906H1189.8V233.334Z" fill="#303030"/>
</g>
</g>
<g filter="url(#filter6_ddii)">
<rect x="1007" y="750" width="256" height="256" rx="128" fill="#303030"/>
<rect x="1007" y="750" width="256" height="256" rx="128" fill="url(#paint4_linear)"/>
<rect x="1007" y="750" width="256" height="256" rx="128" fill="#A8FFCB" fill-opacity="0.2"/>
<path d="M1135 786C1132.14 786 1129.28 786.719 1126.73 788.156L1059.36 826.016C1054.2 828.906 1051 834.328 1051 840.141V915.859C1051 921.672 1054.2 927.094 1059.36 929.984L1126.73 967.844C1129.28 969.281 1132.14 970 1135 970C1137.86 970 1140.72 969.281 1143.27 967.844L1210.64 930C1215.8 927.094 1219 921.672 1219 915.859V840.141C1219 834.328 1215.8 828.906 1210.64 826.016L1143.27 788.156C1140.72 786.719 1137.86 786 1135 786ZM1135 830C1150.12 830 1164.11 837.016 1173.17 848.953L1155.64 859.109C1150.38 853.344 1142.89 850 1135 850C1119.56 850 1107 862.562 1107 878C1107 893.438 1119.56 906 1135 906C1142.89 906 1150.38 902.656 1155.64 896.891L1173.17 907.047C1164.11 918.984 1150.12 926 1135 926C1108.53 926 1087 904.469 1087 878C1087 851.531 1108.53 830 1135 830ZM1175 858H1183V866H1191V858H1199V866H1207V874H1199V882H1207V890H1199V898H1191V890H1183V898H1175V890H1167V882H1175V874H1167V866H1175V858ZM1183 874V882H1191V874H1183Z" fill="#4A90E2"/>
</g>
<g filter="url(#filter7_ddii)">
<rect x="832" y="412" width="256" height="256" rx="128" fill="#303030"/>
<rect x="832" y="412" width="256" height="256" rx="128" fill="url(#paint5_linear)"/>
<rect x="832" y="412" width="256" height="256" rx="128" fill="#FF9900" fill-opacity="0.67"/>
<path d="M959.234 442.002C951.87 442.039 944.837 442.718 938.649 443.903C920.42 447.389 917.11 454.684 917.11 468.138V485.907H960.188V491.83H917.11H900.943C888.424 491.83 877.461 499.974 874.033 515.467C870.077 533.226 869.902 544.307 874.033 562.85C877.095 576.653 884.407 586.487 896.927 586.487H911.738V565.187C911.738 549.798 924.04 536.224 938.649 536.224H981.676C993.654 536.224 1003.22 525.551 1003.22 512.533V468.138C1003.22 455.503 993.366 446.012 981.676 443.903C974.276 442.57 966.598 441.965 959.234 442.002ZM935.938 456.293C940.387 456.293 944.021 460.29 944.021 465.204C944.021 470.101 940.387 474.061 935.938 474.061C931.472 474.061 927.854 470.101 927.854 465.204C927.854 460.29 931.472 456.293 935.938 456.293Z" fill="url(#paint6_linear)"/>
<path d="M1008.59 491.83V512.533C1008.59 528.584 996.014 542.093 981.676 542.093H938.649C926.863 542.093 917.11 553.01 917.11 565.784V610.179C917.11 622.814 927.262 630.246 938.649 633.87C952.285 638.21 965.361 638.994 981.676 633.87C992.521 630.472 1003.22 623.633 1003.22 610.179V592.41H960.188V586.487H1003.22H1024.75C1037.27 586.487 1041.94 577.036 1046.29 562.85C1050.79 548.246 1050.6 534.202 1046.29 515.467C1043.2 501.978 1037.29 491.83 1024.75 491.83H1008.59ZM984.387 604.256C988.853 604.256 992.471 608.216 992.471 613.113C992.471 618.028 988.853 622.025 984.387 622.025C979.938 622.025 976.304 618.028 976.304 613.113C976.304 608.216 979.938 604.256 984.387 604.256Z" fill="url(#paint7_linear)"/>
</g>
<g filter="url(#filter8_ddii)">
<rect x="650" y="74" width="256" height="256" rx="128" fill="#303030"/>
<rect x="650" y="74" width="256" height="256" rx="128" fill="url(#paint8_linear)"/>
<rect x="650" y="74" width="256" height="256" rx="128" fill="#A8FFCB" fill-opacity="0.2"/>
<path d="M778 87C774.426 87 770.871 87.8984 767.668 89.6953L683.449 137.02C677.043 140.633 673 147.371 673 154.676V249.324C673 256.648 677.043 263.387 683.449 267L767.668 314.305C774.074 317.918 781.926 317.918 788.332 314.305L872.551 267C878.977 263.387 883 256.629 883 249.324V154.676C883 147.371 878.957 140.633 872.551 137.02L788.332 89.6953C785.129 87.8984 781.574 87 778 87ZM778 97C779.875 97 781.77 97.4688 783.449 98.4062L867.668 145.73C871.008 147.625 873 151.023 873 154.676V197H863V187H853V197H843V207H853V217H863V207H873V249.324C873 252.977 871.008 256.375 867.648 258.27L783.449 305.594C780.09 307.469 775.91 307.469 772.551 305.594L688.352 258.27C684.992 256.375 683 252.996 683 249.324V154.676C683 151.023 684.992 147.625 688.352 145.73L772.551 98.4062C774.23 97.4688 776.125 97 778 97ZM778 137C742.199 137 713 166.199 713 202C713 237.801 742.199 267 778 267C798.449 267 817.434 257.469 829.699 241.316L833.117 236.805L802.844 219.266L800.109 222.234C794.465 228.406 786.457 232 778 232C761.418 232 748 218.582 748 202C748 185.418 761.418 172 778 172C786.457 172 794.465 175.594 800.109 181.766L802.844 184.734L833.117 167.195L829.699 162.684C817.434 146.531 798.449 137 778 137ZM778 147C793.371 147 807.434 153.582 817.727 164.559L804.016 172.488C796.789 166.16 787.805 162 778 162C755.988 162 738 179.988 738 202C738 224.012 755.988 242 778 242C787.805 242 796.789 237.84 804.016 231.512L817.727 239.441C807.434 250.418 793.371 257 778 257C747.629 257 723 232.371 723 202C723 171.629 747.629 147 778 147ZM818 187V197H808V207H818V217H828V207H838V197H828V187H818Z" fill="#4A90E2"/>
</g>
<g filter="url(#filter9_ddii)">
<rect x="657" y="750" width="256" height="256" rx="128" fill="#303030"/>
<rect x="657" y="750" width="256" height="256" rx="128" fill="url(#paint9_linear)"/>
<rect x="657" y="750" width="256" height="256" rx="128" fill="#A8FFCB" fill-opacity="0.2"/>
<path d="M855.833 798.833H714.167L726.667 940.5L785 957.167L843.333 940.5L855.833 798.833Z" fill="#0277BD"/>
<path d="M785 811.333V944.25L831.667 930.917L842.083 811.333H785Z" fill="#039BE5"/>
<path d="M822.917 832.167H785V848.833H805.417L804.167 865.5H785V882.167H803.333L802.083 900.917L785 906.75V924.25L817.917 913.417L820.833 865.5L822.917 832.167Z" fill="white"/>
<path d="M785 832.167V848.833H747.917L746.667 832.167H785ZM765.833 865.5L766.667 882.167H785V865.5H765.833ZM767.5 890.5H750.833L752.083 913.417L785 924.25V906.75L767.917 900.917L767.5 890.5Z" fill="#EEEEEE"/>
</g>
<g filter="url(#filter10_ddii)">
<rect x="482" y="412" width="256" height="256" rx="128" fill="#303030"/>
<rect x="482" y="412" width="256" height="256" rx="128" fill="url(#paint10_linear)"/>
<rect x="482" y="412" width="256" height="256" rx="128" fill="#FF8946" fill-opacity="0.62"/>
<path d="M691.094 449.297C690.344 448.469 689.266 448 688.141 448H531.859C530.734 448 529.656 448.469 528.906 449.297C528.141 450.125 527.766 451.234 527.875 452.359L541.953 610.062C542.094 611.719 543.25 613.094 544.844 613.562L608.891 631.844C609.234 631.953 609.609 632 609.984 632C610.359 632 610.719 631.953 611.078 631.844L675.172 613.562C676.766 613.094 677.906 611.719 678.062 610.062L692.125 452.359C692.234 451.234 691.859 450.125 691.094 449.297ZM657.391 503.672H582.141L583.937 524.031H655.578L650.203 584.203L609.969 596.359L609.578 596.234L569.812 584.188L567.641 559.672H587.125L587.969 569.188L610.203 573.844L632.031 569.188L634.359 543.438H566.187L560.891 484.219H659.125L657.391 503.672Z" fill="#4A90E2"/>
</g>
<g filter="url(#filter11_ddii)">
<rect x="1357" y="74" width="256" height="256" rx="128" fill="#303030"/>
<rect x="1357" y="74" width="256" height="256" rx="128" fill="url(#paint11_linear)"/>
<path d="M1418.2 213.311C1410.16 210.999 1404.3 208.167 1400.62 204.814C1396.98 201.429 1395.15 197.262 1395.15 192.314C1395.15 186.715 1397.38 182.093 1401.84 178.447C1406.33 174.769 1412.16 172.93 1419.32 172.93C1424.21 172.93 1428.55 173.874 1432.36 175.762C1436.2 177.65 1439.16 180.254 1441.25 183.574C1443.36 186.895 1444.42 190.524 1444.42 194.463H1435C1435 190.166 1433.63 186.797 1430.89 184.355C1428.16 181.882 1424.3 180.645 1419.32 180.645C1414.7 180.645 1411.09 181.67 1408.48 183.721C1405.91 185.739 1404.62 188.555 1404.62 192.168C1404.62 195.065 1405.85 197.523 1408.29 199.541C1410.76 201.527 1414.94 203.35 1420.84 205.01C1426.76 206.67 1431.38 208.509 1434.7 210.527C1438.06 212.513 1440.53 214.84 1442.12 217.51C1443.75 220.179 1444.57 223.32 1444.57 226.934C1444.57 232.695 1442.32 237.318 1437.83 240.801C1433.34 244.251 1427.33 245.977 1419.81 245.977C1414.93 245.977 1410.37 245.049 1406.14 243.193C1401.91 241.305 1398.64 238.734 1396.32 235.479C1394.05 232.223 1392.91 228.529 1392.91 224.395H1402.33C1402.33 228.691 1403.91 232.093 1407.07 234.6C1410.26 237.074 1414.5 238.311 1419.81 238.311C1424.76 238.311 1428.55 237.301 1431.19 235.283C1433.82 233.265 1435.14 230.514 1435.14 227.031C1435.14 223.548 1433.92 220.863 1431.48 218.975C1429.04 217.054 1424.61 215.166 1418.2 213.311ZM1480.16 232.549L1500.47 173.906H1510.73L1484.36 245H1476.06L1449.74 173.906H1459.95L1480.16 232.549ZM1572.11 235.674C1569.7 239.124 1566.33 241.712 1562 243.438C1557.7 245.13 1552.69 245.977 1546.96 245.977C1541.16 245.977 1536.02 244.626 1531.53 241.924C1527.04 239.189 1523.55 235.316 1521.08 230.303C1518.64 225.29 1517.39 219.479 1517.32 212.871V206.67C1517.32 195.96 1519.81 187.66 1524.79 181.768C1529.8 175.876 1536.84 172.93 1545.88 172.93C1553.31 172.93 1559.28 174.834 1563.8 178.643C1568.33 182.419 1571.1 187.79 1572.11 194.756H1562.73C1560.97 185.348 1555.37 180.645 1545.93 180.645C1539.65 180.645 1534.88 182.858 1531.63 187.285C1528.4 191.68 1526.78 198.06 1526.74 206.426V212.236C1526.74 220.212 1528.57 226.559 1532.21 231.279C1535.86 235.967 1540.79 238.311 1547.01 238.311C1550.52 238.311 1553.6 237.92 1556.24 237.139C1558.87 236.357 1561.05 235.039 1562.78 233.184V217.217H1546.32V209.6H1572.11V235.674Z" fill="#C4C4C4"/>
</g>
<g filter="url(#filter12_ddii)">
<rect x="1357" y="750" width="256" height="256" rx="128" fill="#303030"/>
<rect x="1357" y="750" width="256" height="256" rx="128" fill="url(#paint12_linear)"/>
<path d="M1485 818.625C1457.75 818.625 1433.05 825.062 1414.92 835.69C1396.79 846.319 1385 861.42 1385 878.543C1385 895.667 1396.79 910.768 1414.92 921.396C1433.05 932.024 1457.75 938.461 1485 938.461C1512.25 938.461 1536.95 932.024 1555.08 921.396C1573.21 910.768 1585 895.667 1585 878.543C1585 861.42 1573.21 846.319 1555.08 835.69C1536.95 825.062 1512.25 818.625 1485 818.625ZM1485 824.875C1511.26 824.875 1534.99 831.153 1551.92 841.08C1568.85 851.007 1578.75 864.3 1578.75 878.543C1578.75 892.786 1568.85 906.08 1551.92 916.007C1534.99 925.933 1511.26 932.211 1485 932.211C1458.74 932.211 1435.01 925.933 1418.08 916.007C1401.15 906.08 1391.25 892.786 1391.25 878.543C1391.25 864.3 1401.15 851.007 1418.08 841.08C1435.01 831.153 1458.74 824.875 1485 824.875ZM1466.3 835.281C1466.12 835.283 1465.94 835.299 1465.77 835.33C1461.04 836.066 1456.65 836.96 1452.57 837.973C1452.15 838.058 1451.76 838.226 1451.42 838.465C1451.07 838.705 1450.78 839.013 1450.55 839.369C1450.33 839.725 1450.18 840.123 1450.11 840.539C1450.04 840.955 1450.06 841.38 1450.16 841.789C1450.27 842.197 1450.45 842.581 1450.7 842.917C1450.96 843.253 1451.27 843.535 1451.64 843.744C1452.01 843.954 1452.41 844.088 1452.83 844.138C1453.25 844.187 1453.67 844.152 1454.07 844.034C1457.97 843.066 1462.18 842.209 1466.73 841.501C1467.51 841.39 1468.23 840.986 1468.72 840.372C1469.22 839.758 1469.46 838.978 1469.41 838.19C1469.35 837.401 1469 836.663 1468.43 836.124C1467.85 835.584 1467.09 835.283 1466.3 835.281V835.281ZM1440.96 841.635C1440.58 841.634 1440.19 841.704 1439.83 841.843C1426.33 846.781 1417.45 852.969 1411.93 857.993C1406.42 863.017 1404.13 867.13 1404.13 867.13C1403.91 867.491 1403.77 867.893 1403.71 868.311C1403.65 868.73 1403.68 869.156 1403.79 869.564C1403.9 869.972 1404.09 870.354 1404.35 870.686C1404.61 871.018 1404.94 871.294 1405.31 871.496C1405.68 871.699 1406.09 871.824 1406.51 871.864C1406.93 871.904 1407.35 871.859 1407.76 871.73C1408.16 871.601 1408.53 871.392 1408.85 871.116C1409.17 870.839 1409.43 870.5 1409.62 870.12C1409.62 870.12 1411.21 867.112 1416.15 862.613C1421.08 858.114 1429.23 852.379 1441.98 847.714C1442.68 847.473 1443.27 846.992 1443.65 846.356C1444.03 845.721 1444.17 844.973 1444.04 844.244C1443.92 843.515 1443.54 842.853 1442.98 842.375C1442.42 841.898 1441.7 841.636 1440.96 841.635V841.635ZM1477.63 843.765L1467.07 894.309H1478.12L1483.46 869.034H1492.29C1495.11 869.034 1496.97 869.506 1497.84 870.438C1498.7 871.378 1498.89 873.146 1498.39 875.705L1494.36 894.309H1505.59L1509.96 874.179C1510.89 869.354 1510.18 865.816 1507.85 863.669C1505.46 861.488 1501.27 860.611 1495.02 860.611H1485.16L1488.68 843.765H1477.63ZM1429.16 860.611L1420.61 906.943H1431.76L1433.98 894.309H1440.91C1455.43 894.309 1463.33 890.945 1466.28 878.488C1468.82 867.785 1462.33 860.611 1451.62 860.611H1429.16ZM1517.61 860.611L1509.07 906.943H1520.21L1522.43 894.309H1529.37C1543.88 894.309 1551.78 890.945 1554.73 878.488C1557.27 867.785 1550.78 860.611 1540.07 860.611H1517.61ZM1438.73 869.034H1447.41C1454.61 869.034 1456.12 872.279 1455.75 875.888C1454.78 885.179 1448.99 885.88 1442.75 885.88H1435.55L1438.73 869.034ZM1527.18 869.034H1535.87C1543.06 869.034 1544.57 872.279 1544.2 875.888C1543.23 885.179 1537.43 885.88 1531.2 885.88H1524L1527.18 869.034ZM1565.09 924.777C1564.52 924.767 1563.96 924.913 1563.47 925.197C1562.98 925.482 1562.57 925.896 1562.3 926.394C1562.02 926.892 1561.89 927.455 1561.91 928.023C1561.93 928.591 1562.11 929.142 1562.42 929.617L1565.78 934.891C1566 935.237 1566.29 935.536 1566.62 935.772C1566.96 936.007 1567.34 936.174 1567.74 936.263C1568.14 936.351 1568.56 936.36 1568.96 936.289C1569.37 936.217 1569.75 936.067 1570.1 935.846C1570.44 935.625 1570.74 935.338 1570.98 935.002C1571.21 934.665 1571.38 934.286 1571.47 933.885C1571.56 933.484 1571.57 933.069 1571.5 932.665C1571.42 932.26 1571.27 931.874 1571.05 931.528L1567.69 926.26C1567.42 925.815 1567.03 925.447 1566.58 925.187C1566.13 924.928 1565.61 924.787 1565.09 924.777V924.777ZM1552.28 931.699C1551.76 931.728 1551.27 931.884 1550.83 932.153C1550.39 932.422 1550.02 932.795 1549.76 933.24C1549.5 933.684 1549.35 934.186 1549.33 934.701C1549.31 935.216 1549.42 935.728 1549.65 936.191L1552.32 941.849C1552.67 942.598 1553.31 943.176 1554.09 943.456C1554.87 943.735 1555.73 943.693 1556.48 943.338C1557.23 942.984 1557.81 942.346 1558.08 941.565C1558.36 940.785 1558.32 939.925 1557.97 939.176L1555.3 933.524C1555.04 932.95 1554.61 932.47 1554.07 932.144C1553.53 931.818 1552.91 931.663 1552.28 931.699ZM1538.94 937.106C1538.45 937.13 1537.98 937.268 1537.55 937.509C1537.13 937.75 1536.76 938.088 1536.49 938.495C1536.22 938.903 1536.05 939.368 1535.99 939.854C1535.93 940.34 1535.99 940.833 1536.15 941.293L1538.2 947.202C1538.33 947.59 1538.54 947.947 1538.81 948.254C1539.09 948.561 1539.42 948.812 1539.79 948.991C1540.16 949.17 1540.56 949.275 1540.97 949.3C1541.38 949.324 1541.79 949.268 1542.17 949.133C1542.56 948.999 1542.92 948.79 1543.23 948.517C1543.53 948.245 1543.78 947.915 1543.96 947.545C1544.14 947.176 1544.25 946.775 1544.27 946.365C1544.3 945.955 1544.24 945.545 1544.11 945.157L1542.06 939.249C1541.85 938.6 1541.43 938.039 1540.86 937.652C1540.3 937.265 1539.63 937.073 1538.94 937.106V937.106ZM1525.06 941.171C1524.6 941.195 1524.15 941.321 1523.74 941.54C1523.34 941.759 1522.98 942.066 1522.71 942.439C1522.43 942.812 1522.24 943.24 1522.16 943.695C1522.07 944.149 1522.08 944.617 1522.19 945.065L1523.66 951.145C1523.85 951.951 1524.36 952.646 1525.07 953.078C1525.78 953.51 1526.63 953.644 1527.43 953.449C1528.24 953.254 1528.94 952.746 1529.37 952.038C1529.8 951.33 1529.93 950.48 1529.74 949.674L1528.27 943.601C1528.11 942.882 1527.7 942.245 1527.11 941.8C1526.52 941.356 1525.8 941.133 1525.06 941.171V941.171ZM1511.14 943.936C1511.03 943.933 1510.92 943.935 1510.82 943.942C1510.38 943.97 1509.96 944.088 1509.57 944.29C1509.18 944.492 1508.84 944.773 1508.57 945.115C1508.3 945.456 1508.1 945.851 1507.99 946.274C1507.88 946.696 1507.86 947.137 1507.93 947.568L1508.85 953.751C1508.91 954.157 1509.05 954.547 1509.26 954.899C1509.48 955.251 1509.75 955.558 1510.08 955.802C1510.41 956.047 1510.79 956.224 1511.19 956.323C1511.58 956.423 1512 956.443 1512.4 956.382C1512.81 956.322 1513.2 956.182 1513.55 955.971C1513.91 955.759 1514.21 955.481 1514.46 955.151C1514.7 954.821 1514.88 954.446 1514.98 954.047C1515.08 953.649 1515.1 953.235 1515.04 952.829L1514.11 946.646C1514.02 945.916 1513.66 945.243 1513.12 944.748C1512.57 944.252 1511.87 943.964 1511.14 943.936V943.936ZM1496.66 945.456C1496.23 945.447 1495.79 945.53 1495.39 945.698C1494.99 945.867 1494.63 946.118 1494.33 946.436C1494.03 946.753 1493.8 947.13 1493.65 947.541C1493.51 947.953 1493.45 948.39 1493.48 948.825L1493.89 955.063C1493.91 955.473 1494.02 955.873 1494.2 956.241C1494.38 956.61 1494.63 956.939 1494.94 957.21C1495.25 957.481 1495.61 957.688 1496 957.82C1496.39 957.953 1496.8 958.007 1497.21 957.981C1497.62 957.954 1498.02 957.847 1498.39 957.666C1498.75 957.485 1499.08 957.233 1499.35 956.925C1499.62 956.616 1499.83 956.258 1499.96 955.869C1500.1 955.481 1500.15 955.07 1500.12 954.66L1499.72 948.422C1499.68 947.634 1499.34 946.89 1498.77 946.34C1498.21 945.789 1497.45 945.474 1496.66 945.456V945.456Z" fill="#4A90E2"/>
</g>
<g filter="url(#filter13_ddii)">
<rect x="1182" y="412" width="256" height="256" rx="128" fill="#303030"/>
<rect x="1182" y="412" width="256" height="256" rx="128" fill="url(#paint13_linear)"/>
<rect x="1182" y="412" width="256" height="256" rx="128" fill="#FF8946" fill-opacity="0.62"/>
<path d="M1225.67 462.637L1242.75 604.031C1243.36 609.041 1246.93 613.203 1251.82 614.591L1306.61 630.144C1308.83 630.772 1311.18 630.788 1313.4 630.184L1371.03 614.572C1376.08 613.206 1379.75 608.894 1380.27 603.725L1394.48 462.516C1394.85 458.825 1391.94 455.625 1388.2 455.625H1231.93C1228.15 455.625 1225.22 458.909 1225.67 462.637Z" fill="#F6D397"/>
<path d="M1373.62 471.25H1310V615C1310.93 615.006 1311.86 614.878 1312.77 614.616L1359.65 600.956C1363.75 599.763 1366.74 595.988 1367.16 591.466L1378.72 477.281C1379.02 474.05 1376.65 471.25 1373.62 471.25Z" fill="#F9E3AE"/>
<path d="M1310.08 633.75C1308.63 633.75 1307.17 633.55 1305.76 633.153L1250.96 617.597C1244.85 615.859 1240.41 610.681 1239.65 604.406L1222.57 463.012C1222.24 460.356 1223.08 457.684 1224.86 455.678C1226.65 453.659 1229.23 452.5 1231.93 452.5H1388.21C1390.88 452.5 1393.43 453.634 1395.22 455.609C1396.99 457.572 1397.86 460.203 1397.59 462.831L1383.38 604.038C1382.73 610.447 1378.1 615.894 1371.85 617.587L1314.22 633.2C1312.86 633.566 1311.47 633.75 1310.08 633.75ZM1231.93 458.75C1231 458.75 1230.15 459.131 1229.54 459.825C1228.94 460.503 1228.67 461.369 1228.78 462.263L1245.86 603.656C1246.32 607.425 1248.99 610.538 1252.67 611.584L1307.47 627.137C1309.13 627.612 1310.92 627.622 1312.58 627.166L1370.22 611.553C1373.98 610.534 1376.77 607.259 1377.16 603.412L1391.38 462.203C1391.46 461.316 1391.18 460.462 1390.58 459.8C1389.97 459.122 1389.12 458.75 1388.2 458.75H1231.93Z" fill="#8D6C9F"/>
<path d="M1388.12 477.5C1386.4 477.5 1385 476.1 1385 474.375V468.125C1385 466.4 1386.4 465 1388.12 465C1389.85 465 1391.25 466.4 1391.25 468.125V474.375C1391.25 476.1 1389.85 477.5 1388.12 477.5ZM1372.5 477.5C1370.77 477.5 1369.38 476.1 1369.38 474.375V468.125C1369.38 466.4 1370.77 465 1372.5 465C1374.23 465 1375.62 466.4 1375.62 468.125V474.375C1375.62 476.1 1374.23 477.5 1372.5 477.5ZM1356.88 477.5C1355.15 477.5 1353.75 476.1 1353.75 474.375V468.125C1353.75 466.4 1355.15 465 1356.88 465C1358.6 465 1360 466.4 1360 468.125V474.375C1360 476.1 1358.6 477.5 1356.88 477.5ZM1341.25 477.5C1339.52 477.5 1338.12 476.1 1338.12 474.375V468.125C1338.12 466.4 1339.52 465 1341.25 465C1342.98 465 1344.38 466.4 1344.38 468.125V474.375C1344.38 476.1 1342.98 477.5 1341.25 477.5ZM1325.62 477.5C1323.9 477.5 1322.5 476.1 1322.5 474.375V468.125C1322.5 466.4 1323.9 465 1325.62 465C1327.35 465 1328.75 466.4 1328.75 468.125V474.375C1328.75 476.1 1327.35 477.5 1325.62 477.5ZM1310 477.5C1308.27 477.5 1306.88 476.1 1306.88 474.375V468.125C1306.88 466.4 1308.27 465 1310 465C1311.73 465 1313.12 466.4 1313.12 468.125V474.375C1313.12 476.1 1311.73 477.5 1310 477.5ZM1294.38 477.5C1292.65 477.5 1291.25 476.1 1291.25 474.375V468.125C1291.25 466.4 1292.65 465 1294.38 465C1296.1 465 1297.5 466.4 1297.5 468.125V474.375C1297.5 476.1 1296.1 477.5 1294.38 477.5ZM1278.75 477.5C1277.02 477.5 1275.62 476.1 1275.62 474.375V468.125C1275.62 466.4 1277.02 465 1278.75 465C1280.48 465 1281.88 466.4 1281.88 468.125V474.375C1281.88 476.1 1280.48 477.5 1278.75 477.5ZM1263.12 477.5C1261.4 477.5 1260 476.1 1260 474.375V468.125C1260 466.4 1261.4 465 1263.12 465C1264.85 465 1266.25 466.4 1266.25 468.125V474.375C1266.25 476.1 1264.85 477.5 1263.12 477.5ZM1247.5 477.5C1245.77 477.5 1244.38 476.1 1244.38 474.375V468.125C1244.38 466.4 1245.77 465 1247.5 465C1249.23 465 1250.62 466.4 1250.62 468.125V474.375C1250.62 476.1 1249.23 477.5 1247.5 477.5ZM1231.88 477.5C1230.15 477.5 1228.75 476.1 1228.75 474.375V468.125C1228.75 466.4 1230.15 465 1231.88 465C1233.6 465 1235 466.4 1235 468.125V474.375C1235 476.1 1233.6 477.5 1231.88 477.5Z" fill="#8D6C9F"/>
<path d="M1285 499.375C1285 525.416 1285 551.459 1285 577.5C1275.62 575.416 1266.25 573.334 1256.88 571.25C1257.52 577.5 1258.16 583.75 1258.8 590C1272.74 593.975 1286.68 597.947 1300.62 601.922V499.375C1295.42 499.375 1290.21 499.375 1285 499.375Z" fill="#FAEFDE"/>
<path d="M1365.69 515.15L1367.05 499.375C1351.16 499.375 1335.27 499.375 1319.38 499.375C1319.38 522.291 1319.38 545.209 1319.38 568.125C1328.69 565.972 1338.01 563.819 1347.33 561.669L1346.34 576.459C1337.36 578.887 1328.37 581.319 1319.38 583.75C1319.38 590 1319.38 596.25 1319.38 602.5C1332.64 598.691 1345.9 594.884 1359.16 591.075L1363.32 542.759C1353.88 543.922 1344.44 545.087 1335 546.25C1335 535.834 1335 525.416 1335 515C1345.23 515.05 1355.46 515.1 1365.69 515.15Z" fill="#FAEFDE"/>
<path d="M1300.63 605.047C1300.34 605.047 1300.05 605.006 1299.77 604.928L1257.94 593.006C1256.71 592.656 1255.82 591.591 1255.69 590.319L1253.77 571.569C1253.67 570.569 1254.05 569.581 1254.8 568.916C1255.55 568.247 1256.57 567.981 1257.55 568.2L1281.87 573.603V499.375C1281.87 497.65 1283.27 496.25 1285 496.25H1300.63C1302.35 496.25 1303.75 497.65 1303.75 499.375V601.922C1303.75 602.9 1303.29 603.825 1302.51 604.416C1301.96 604.831 1301.3 605.047 1300.63 605.047ZM1261.69 587.575L1297.5 597.781V502.5H1288.13V577.5C1288.13 578.447 1287.69 579.344 1286.96 579.938C1286.22 580.531 1285.25 580.756 1284.32 580.55L1260.42 575.241L1261.69 587.575Z" fill="#8D6C9F"/>
<path d="M1319.38 605.625C1318.7 605.625 1318.04 605.409 1317.49 604.997C1316.71 604.406 1316.25 603.481 1316.25 602.5V583.75C1316.25 582.338 1317.2 581.1 1318.56 580.734L1343.37 574.025L1343.93 565.659L1320.07 571.169C1319.16 571.391 1318.18 571.166 1317.43 570.572C1316.68 569.978 1316.25 569.078 1316.25 568.125V499.375C1316.25 497.65 1317.65 496.25 1319.38 496.25H1367.05C1367.93 496.25 1368.77 496.619 1369.36 497.262C1369.95 497.909 1370.24 498.772 1370.17 499.644L1368.8 515.419C1368.67 517.041 1367.18 518.375 1365.68 518.275L1338.13 518.141V542.716L1362.94 539.656C1363.86 539.544 1364.81 539.853 1365.49 540.506C1366.17 541.159 1366.51 542.084 1366.43 543.025L1362.28 591.341C1362.17 592.631 1361.27 593.719 1360.03 594.075L1320.24 605.497C1319.96 605.584 1319.67 605.625 1319.38 605.625ZM1322.5 586.144V598.353L1356.23 588.666L1359.88 546.334L1335.38 549.353C1334.5 549.459 1333.6 549.184 1332.93 548.591C1332.26 547.997 1331.88 547.147 1331.88 546.25V515C1331.88 514.169 1332.21 513.372 1332.8 512.784C1333.39 512.197 1334.09 511.891 1335.02 511.875L1362.83 512.013L1363.65 502.5H1322.5V564.197L1346.63 558.625C1347.59 558.397 1348.61 558.647 1349.36 559.291C1350.11 559.931 1350.52 560.891 1350.45 561.878L1349.47 576.669C1349.38 578 1348.45 579.128 1347.16 579.475L1322.5 586.144Z" fill="#8D6C9F"/>
</g>
<g filter="url(#filter14_ddii)">
<rect x="1532" y="412" width="256" height="256" rx="128" fill="#303030"/>
<rect x="1532" y="412" width="256" height="256" rx="128" fill="url(#paint14_linear)"/>
<path d="M1598.35 593.533C1593.14 591.906 1589.23 589.253 1586.63 585.574C1584.06 581.896 1582.77 577.046 1582.77 571.023V559.256C1582.77 550.076 1578.7 545.486 1570.56 545.486V542.264C1578.7 542.264 1582.77 537.706 1582.77 528.592V516.531C1582.8 510.509 1584.11 505.659 1586.68 501.98C1589.28 498.302 1593.17 495.649 1598.35 494.021L1599.08 496.219C1589.97 499.181 1585.41 506.131 1585.41 517.068V528.201C1585.41 537.055 1581.97 542.28 1575.11 543.875C1581.97 545.6 1585.41 550.825 1585.41 559.549V570.73C1585.41 581.31 1590.05 588.162 1599.32 591.287L1598.35 593.533ZM1718.86 591.287C1728.1 588.13 1732.72 581.342 1732.72 570.926V559.549C1732.72 550.825 1736.16 545.6 1743.03 543.875C1736.16 542.28 1732.72 537.055 1732.72 528.201V517.117C1732.72 506.115 1728.18 499.148 1719.1 496.219L1719.78 494.021C1724.99 495.649 1728.87 498.302 1731.4 501.98C1733.98 505.626 1735.29 510.395 1735.36 516.287V528.445C1735.36 537.658 1739.43 542.264 1747.57 542.264V545.486C1739.43 545.486 1735.36 550.125 1735.36 559.402V570.975C1735.36 577.029 1734.07 581.88 1731.5 585.525C1728.96 589.204 1725.06 591.873 1719.78 593.533L1718.86 591.287Z" fill="#FF630B"/>
<path d="M1613.39 524.453H1614.71V549.209C1614.71 552.643 1613.77 555.386 1611.9 557.437C1610.03 559.471 1607.54 560.488 1604.45 560.488C1601.13 560.488 1598.59 559.601 1596.83 557.827C1595.08 556.053 1594.2 553.514 1594.2 550.21H1595.52C1595.52 553.107 1596.26 555.329 1597.74 556.875C1599.23 558.405 1601.47 559.17 1604.45 559.17C1607.06 559.17 1609.18 558.299 1610.82 556.558C1612.48 554.816 1613.34 552.448 1613.39 549.453V524.453ZM1645.66 551.479C1645.66 549.966 1645.3 548.688 1644.59 547.646C1643.89 546.589 1642.77 545.661 1641.24 544.863C1639.73 544.049 1637.43 543.219 1634.36 542.373C1631.28 541.527 1628.97 540.672 1627.42 539.81C1625.89 538.947 1624.77 537.946 1624.06 536.807C1623.34 535.667 1622.98 534.284 1622.98 532.656C1622.98 530.068 1624.07 527.977 1626.25 526.382C1628.43 524.771 1631.27 523.965 1634.77 523.965C1637.05 523.965 1639.09 524.412 1640.9 525.308C1642.72 526.187 1644.13 527.432 1645.12 529.043C1646.12 530.638 1646.61 532.445 1646.61 534.463H1645.3C1645.3 531.81 1644.32 529.621 1642.37 527.896C1640.41 526.154 1637.88 525.283 1634.77 525.283C1631.65 525.283 1629.12 525.983 1627.18 527.383C1625.26 528.766 1624.3 530.508 1624.3 532.607C1624.3 534.74 1625.14 536.457 1626.81 537.759C1628.49 539.061 1631.26 540.216 1635.12 541.226C1638.97 542.218 1641.8 543.374 1643.59 544.692C1645.87 546.369 1647 548.615 1647 551.431C1647 553.221 1646.5 554.808 1645.49 556.191C1644.48 557.559 1643.05 558.617 1641.19 559.365C1639.34 560.114 1637.26 560.488 1634.94 560.488C1632.37 560.488 1630.06 560.065 1628.01 559.219C1625.96 558.356 1624.41 557.135 1623.37 555.557C1622.35 553.978 1621.83 552.114 1621.83 549.966H1623.15C1623.15 552.879 1624.24 555.142 1626.42 556.753C1628.6 558.364 1631.44 559.17 1634.94 559.17C1638.05 559.17 1640.62 558.462 1642.63 557.046C1644.65 555.614 1645.66 553.758 1645.66 551.479ZM1679.13 544.888C1679.13 547.964 1678.58 550.69 1677.47 553.066C1676.38 555.426 1674.82 557.257 1672.79 558.56C1670.75 559.845 1668.41 560.488 1665.75 560.488C1661.75 560.488 1658.51 559.064 1656.04 556.216C1653.56 553.368 1652.33 549.526 1652.33 544.692V539.565C1652.33 536.506 1652.87 533.787 1653.96 531.411C1655.07 529.035 1656.64 527.204 1658.67 525.918C1660.73 524.616 1663.07 523.965 1665.71 523.965C1668.36 523.965 1670.7 524.616 1672.74 525.918C1674.79 527.204 1676.37 529.043 1677.47 531.436C1678.58 533.812 1679.13 536.522 1679.13 539.565V544.888ZM1677.82 539.517C1677.82 535.22 1676.72 531.777 1674.54 529.189C1672.36 526.585 1669.42 525.283 1665.71 525.283C1662.04 525.283 1659.12 526.577 1656.94 529.165C1654.76 531.737 1653.67 535.244 1653.67 539.688V544.888C1653.67 547.72 1654.16 550.226 1655.13 552.407C1656.13 554.572 1657.54 556.24 1659.36 557.412C1661.18 558.584 1663.31 559.17 1665.75 559.17C1669.47 559.17 1672.4 557.876 1674.57 555.288C1676.73 552.7 1677.82 549.168 1677.82 544.692V539.517ZM1712.87 560H1711.56L1688.61 526.699V560H1687.26V524.453H1688.61L1711.56 557.681V524.453H1712.87V560Z" fill="white"/>
</g>
</g>
<defs>
<filter id="filter0_ii" x="-20" y="-20" width="1960" height="1120" filterUnits="userSpaceOnUse" color-interpolation-filters="sRGB">
<feFlood flood-opacity="0" result="BackgroundImageFix"/>
<feBlend mode="normal" in="SourceGraphic" in2="BackgroundImageFix" result="shape"/>
<feColorMatrix in="SourceAlpha" type="matrix" values="0 0 0 0 0 0 0 0 0 0 0 0 0 0 0 0 0 0 127 0" result="hardAlpha"/>
<feOffset dx="20" dy="20"/>
<feGaussianBlur stdDeviation="10"/>
<feComposite in2="hardAlpha" operator="arithmetic" k2="-1" k3="1"/>
<feColorMatrix type="matrix" values="0 0 0 0 0 0 0 0 0 0 0 0 0 0 0 0 0 0 1 0"/>
<feBlend mode="normal" in2="shape" result="effect1_innerShadow"/>
<feColorMatrix in="SourceAlpha" type="matrix" values="0 0 0 0 0 0 0 0 0 0 0 0 0 0 0 0 0 0 127 0" result="hardAlpha"/>
<feOffset dx="-20" dy="-20"/>
<feGaussianBlur stdDeviation="10"/>
<feComposite in2="hardAlpha" operator="arithmetic" k2="-1" k3="1"/>
<feColorMatrix type="matrix" values="0 0 0 0 0 0 0 0 0 0 0 0 0 0 0 0 0 0 0.25 0"/>
<feBlend mode="normal" in2="effect1_innerShadow" result="effect2_innerShadow"/>
</filter>
<filter id="filter1_ddii" x="284" y="51" width="302" height="302" filterUnits="userSpaceOnUse" color-interpolation-filters="sRGB">
<feFlood flood-opacity="0" result="BackgroundImageFix"/>
<feColorMatrix in="SourceAlpha" type="matrix" values="0 0 0 0 0 0 0 0 0 0 0 0 0 0 0 0 0 0 127 0" result="hardAlpha"/>
<feOffset dx="10" dy="10"/>
<feGaussianBlur stdDeviation="6.5"/>
<feComposite in2="hardAlpha" operator="out"/>
<feColorMatrix type="matrix" values="0 0 0 0 0 0 0 0 0 0 0 0 0 0 0 0 0 0 1 0"/>
<feBlend mode="normal" in2="BackgroundImageFix" result="effect1_dropShadow"/>
<feColorMatrix in="SourceAlpha" type="matrix" values="0 0 0 0 0 0 0 0 0 0 0 0 0 0 0 0 0 0 127 0" result="hardAlpha"/>
<feOffset dx="-10" dy="-10"/>
<feGaussianBlur stdDeviation="6.5"/>
<feComposite in2="hardAlpha" operator="out"/>
<feColorMatrix type="matrix" values="0 0 0 0 1 0 0 0 0 1 0 0 0 0 1 0 0 0 0.15 0"/>
<feBlend mode="normal" in2="effect1_dropShadow" result="effect2_dropShadow"/>
<feBlend mode="normal" in="SourceGraphic" in2="effect2_dropShadow" result="shape"/>
<feColorMatrix in="SourceAlpha" type="matrix" values="0 0 0 0 0 0 0 0 0 0 0 0 0 0 0 0 0 0 127 0" result="hardAlpha"/>
<feOffset dx="-10" dy="-10"/>
<feGaussianBlur stdDeviation="6.5"/>
<feComposite in2="hardAlpha" operator="arithmetic" k2="-1" k3="1"/>
<feColorMatrix type="matrix" values="0 0 0 0 1 0 0 0 0 1 0 0 0 0 1 0 0 0 0.1 0"/>
<feBlend mode="normal" in2="shape" result="effect3_innerShadow"/>
<feColorMatrix in="SourceAlpha" type="matrix" values="0 0 0 0 0 0 0 0 0 0 0 0 0 0 0 0 0 0 127 0" result="hardAlpha"/>
<feOffset dx="10" dy="10"/>
<feGaussianBlur stdDeviation="6.5"/>
<feComposite in2="hardAlpha" operator="arithmetic" k2="-1" k3="1"/>
<feColorMatrix type="matrix" values="0 0 0 0 0 0 0 0 0 0 0 0 0 0 0 0 0 0 0.25 0"/>
<feBlend mode="normal" in2="effect3_innerShadow" result="effect4_innerShadow"/>
</filter>
<filter id="filter2_ddii" x="284" y="727" width="302" height="302" filterUnits="userSpaceOnUse" color-interpolation-filters="sRGB">
<feFlood flood-opacity="0" result="BackgroundImageFix"/>
<feColorMatrix in="SourceAlpha" type="matrix" values="0 0 0 0 0 0 0 0 0 0 0 0 0 0 0 0 0 0 127 0" result="hardAlpha"/>
<feOffset dx="10" dy="10"/>
<feGaussianBlur stdDeviation="6.5"/>
<feComposite in2="hardAlpha" operator="out"/>
<feColorMatrix type="matrix" values="0 0 0 0 0 0 0 0 0 0 0 0 0 0 0 0 0 0 1 0"/>
<feBlend mode="normal" in2="BackgroundImageFix" result="effect1_dropShadow"/>
<feColorMatrix in="SourceAlpha" type="matrix" values="0 0 0 0 0 0 0 0 0 0 0 0 0 0 0 0 0 0 127 0" result="hardAlpha"/>
<feOffset dx="-10" dy="-10"/>
<feGaussianBlur stdDeviation="6.5"/>
<feComposite in2="hardAlpha" operator="out"/>
<feColorMatrix type="matrix" values="0 0 0 0 1 0 0 0 0 1 0 0 0 0 1 0 0 0 0.15 0"/>
<feBlend mode="normal" in2="effect1_dropShadow" result="effect2_dropShadow"/>
<feBlend mode="normal" in="SourceGraphic" in2="effect2_dropShadow" result="shape"/>
<feColorMatrix in="SourceAlpha" type="matrix" values="0 0 0 0 0 0 0 0 0 0 0 0 0 0 0 0 0 0 127 0" result="hardAlpha"/>
<feOffset dx="-10" dy="-10"/>
<feGaussianBlur stdDeviation="6.5"/>
<feComposite in2="hardAlpha" operator="arithmetic" k2="-1" k3="1"/>
<feColorMatrix type="matrix" values="0 0 0 0 1 0 0 0 0 1 0 0 0 0 1 0 0 0 0.1 0"/>
<feBlend mode="normal" in2="shape" result="effect3_innerShadow"/>
<feColorMatrix in="SourceAlpha" type="matrix" values="0 0 0 0 0 0 0 0 0 0 0 0 0 0 0 0 0 0 127 0" result="hardAlpha"/>
<feOffset dx="10" dy="10"/>
<feGaussianBlur stdDeviation="6.5"/>
<feComposite in2="hardAlpha" operator="arithmetic" k2="-1" k3="1"/>
<feColorMatrix type="matrix" values="0 0 0 0 0 0 0 0 0 0 0 0 0 0 0 0 0 0 0.25 0"/>
<feBlend mode="normal" in2="effect3_innerShadow" result="effect4_innerShadow"/>
</filter>
<filter id="filter3_ddii" x="109" y="389" width="302" height="302" filterUnits="userSpaceOnUse" color-interpolation-filters="sRGB">
<feFlood flood-opacity="0" result="BackgroundImageFix"/>
<feColorMatrix in="SourceAlpha" type="matrix" values="0 0 0 0 0 0 0 0 0 0 0 0 0 0 0 0 0 0 127 0" result="hardAlpha"/>
<feOffset dx="10" dy="10"/>
<feGaussianBlur stdDeviation="6.5"/>
<feComposite in2="hardAlpha" operator="out"/>
<feColorMatrix type="matrix" values="0 0 0 0 0 0 0 0 0 0 0 0 0 0 0 0 0 0 1 0"/>
<feBlend mode="normal" in2="BackgroundImageFix" result="effect1_dropShadow"/>
<feColorMatrix in="SourceAlpha" type="matrix" values="0 0 0 0 0 0 0 0 0 0 0 0 0 0 0 0 0 0 127 0" result="hardAlpha"/>
<feOffset dx="-10" dy="-10"/>
<feGaussianBlur stdDeviation="6.5"/>
<feComposite in2="hardAlpha" operator="out"/>
<feColorMatrix type="matrix" values="0 0 0 0 1 0 0 0 0 1 0 0 0 0 1 0 0 0 0.15 0"/>
<feBlend mode="normal" in2="effect1_dropShadow" result="effect2_dropShadow"/>
<feBlend mode="normal" in="SourceGraphic" in2="effect2_dropShadow" result="shape"/>
<feColorMatrix in="SourceAlpha" type="matrix" values="0 0 0 0 0 0 0 0 0 0 0 0 0 0 0 0 0 0 127 0" result="hardAlpha"/>
<feOffset dx="-10" dy="-10"/>
<feGaussianBlur stdDeviation="6.5"/>
<feComposite in2="hardAlpha" operator="arithmetic" k2="-1" k3="1"/>
<feColorMatrix type="matrix" values="0 0 0 0 1 0 0 0 0 1 0 0 0 0 1 0 0 0 0.1 0"/>
<feBlend mode="normal" in2="shape" result="effect3_innerShadow"/>
<feColorMatrix in="SourceAlpha" type="matrix" values="0 0 0 0 0 0 0 0 0 0 0 0 0 0 0 0 0 0 127 0" result="hardAlpha"/>
<feOffset dx="10" dy="10"/>
<feGaussianBlur stdDeviation="6.5"/>
<feComposite in2="hardAlpha" operator="arithmetic" k2="-1" k3="1"/>
<feColorMatrix type="matrix" values="0 0 0 0 0 0 0 0 0 0 0 0 0 0 0 0 0 0 0.25 0"/>
<feBlend mode="normal" in2="effect3_innerShadow" result="effect4_innerShadow"/>
</filter>
<filter id="filter4_ddii" x="984" y="51" width="302" height="302" filterUnits="userSpaceOnUse" color-interpolation-filters="sRGB">
<feFlood flood-opacity="0" result="BackgroundImageFix"/>
<feColorMatrix in="SourceAlpha" type="matrix" values="0 0 0 0 0 0 0 0 0 0 0 0 0 0 0 0 0 0 127 0" result="hardAlpha"/>
<feOffset dx="10" dy="10"/>
<feGaussianBlur stdDeviation="6.5"/>
<feComposite in2="hardAlpha" operator="out"/>
<feColorMatrix type="matrix" values="0 0 0 0 0 0 0 0 0 0 0 0 0 0 0 0 0 0 1 0"/>
<feBlend mode="normal" in2="BackgroundImageFix" result="effect1_dropShadow"/>
<feColorMatrix in="SourceAlpha" type="matrix" values="0 0 0 0 0 0 0 0 0 0 0 0 0 0 0 0 0 0 127 0" result="hardAlpha"/>
<feOffset dx="-10" dy="-10"/>
<feGaussianBlur stdDeviation="6.5"/>
<feComposite in2="hardAlpha" operator="out"/>
<feColorMatrix type="matrix" values="0 0 0 0 1 0 0 0 0 1 0 0 0 0 1 0 0 0 0.15 0"/>
<feBlend mode="normal" in2="effect1_dropShadow" result="effect2_dropShadow"/>
<feBlend mode="normal" in="SourceGraphic" in2="effect2_dropShadow" result="shape"/>
<feColorMatrix in="SourceAlpha" type="matrix" values="0 0 0 0 0 0 0 0 0 0 0 0 0 0 0 0 0 0 127 0" result="hardAlpha"/>
<feOffset dx="-10" dy="-10"/>
<feGaussianBlur stdDeviation="6.5"/>
<feComposite in2="hardAlpha" operator="arithmetic" k2="-1" k3="1"/>
<feColorMatrix type="matrix" values="0 0 0 0 1 0 0 0 0 1 0 0 0 0 1 0 0 0 0.1 0"/>
<feBlend mode="normal" in2="shape" result="effect3_innerShadow"/>
<feColorMatrix in="SourceAlpha" type="matrix" values="0 0 0 0 0 0 0 0 0 0 0 0 0 0 0 0 0 0 127 0" result="hardAlpha"/>
<feOffset dx="10" dy="10"/>
<feGaussianBlur stdDeviation="6.5"/>
<feComposite in2="hardAlpha" operator="arithmetic" k2="-1" k3="1"/>
<feColorMatrix type="matrix" values="0 0 0 0 0 0 0 0 0 0 0 0 0 0 0 0 0 0 0.25 0"/>
<feBlend mode="normal" in2="effect3_innerShadow" result="effect4_innerShadow"/>
</filter>
<filter id="filter5_d" x="1037.91" y="158.93" width="195.586" height="104.082" filterUnits="userSpaceOnUse" color-interpolation-filters="sRGB">
<feFlood flood-opacity="0" result="BackgroundImageFix"/>
<feColorMatrix in="SourceAlpha" type="matrix" values="0 0 0 0 0 0 0 0 0 0 0 0 0 0 0 0 0 0 127 0" result="hardAlpha"/>
<feOffset/>
<feGaussianBlur stdDeviation="5"/>
<feComposite in2="hardAlpha" operator="out"/>
<feColorMatrix type="matrix" values="0 0 0 0 0 0 0 0 0 1 0 0 0 0 0.94 0 0 0 1 0"/>
<feBlend mode="normal" in2="BackgroundImageFix" result="effect1_dropShadow"/>
<feBlend mode="normal" in="SourceGraphic" in2="effect1_dropShadow" result="shape"/>
</filter>
<filter id="filter6_ddii" x="984" y="727" width="302" height="302" filterUnits="userSpaceOnUse" color-interpolation-filters="sRGB">
<feFlood flood-opacity="0" result="BackgroundImageFix"/>
<feColorMatrix in="SourceAlpha" type="matrix" values="0 0 0 0 0 0 0 0 0 0 0 0 0 0 0 0 0 0 127 0" result="hardAlpha"/>
<feOffset dx="10" dy="10"/>
<feGaussianBlur stdDeviation="6.5"/>
<feComposite in2="hardAlpha" operator="out"/>
<feColorMatrix type="matrix" values="0 0 0 0 0 0 0 0 0 0 0 0 0 0 0 0 0 0 1 0"/>
<feBlend mode="normal" in2="BackgroundImageFix" result="effect1_dropShadow"/>
<feColorMatrix in="SourceAlpha" type="matrix" values="0 0 0 0 0 0 0 0 0 0 0 0 0 0 0 0 0 0 127 0" result="hardAlpha"/>
<feOffset dx="-10" dy="-10"/>
<feGaussianBlur stdDeviation="6.5"/>
<feComposite in2="hardAlpha" operator="out"/>
<feColorMatrix type="matrix" values="0 0 0 0 1 0 0 0 0 1 0 0 0 0 1 0 0 0 0.15 0"/>
<feBlend mode="normal" in2="effect1_dropShadow" result="effect2_dropShadow"/>
<feBlend mode="normal" in="SourceGraphic" in2="effect2_dropShadow" result="shape"/>
<feColorMatrix in="SourceAlpha" type="matrix" values="0 0 0 0 0 0 0 0 0 0 0 0 0 0 0 0 0 0 127 0" result="hardAlpha"/>
<feOffset dx="-10" dy="-10"/>
<feGaussianBlur stdDeviation="6.5"/>
<feComposite in2="hardAlpha" operator="arithmetic" k2="-1" k3="1"/>
<feColorMatrix type="matrix" values="0 0 0 0 1 0 0 0 0 1 0 0 0 0 1 0 0 0 0.1 0"/>
<feBlend mode="normal" in2="shape" result="effect3_innerShadow"/>
<feColorMatrix in="SourceAlpha" type="matrix" values="0 0 0 0 0 0 0 0 0 0 0 0 0 0 0 0 0 0 127 0" result="hardAlpha"/>
<feOffset dx="10" dy="10"/>
<feGaussianBlur stdDeviation="6.5"/>
<feComposite in2="hardAlpha" operator="arithmetic" k2="-1" k3="1"/>
<feColorMatrix type="matrix" values="0 0 0 0 0 0 0 0 0 0 0 0 0 0 0 0 0 0 0.25 0"/>
<feBlend mode="normal" in2="effect3_innerShadow" result="effect4_innerShadow"/>
</filter>
<filter id="filter7_ddii" x="809" y="389" width="302" height="302" filterUnits="userSpaceOnUse" color-interpolation-filters="sRGB">
<feFlood flood-opacity="0" result="BackgroundImageFix"/>
<feColorMatrix in="SourceAlpha" type="matrix" values="0 0 0 0 0 0 0 0 0 0 0 0 0 0 0 0 0 0 127 0" result="hardAlpha"/>
<feOffset dx="10" dy="10"/>
<feGaussianBlur stdDeviation="6.5"/>
<feComposite in2="hardAlpha" operator="out"/>
<feColorMatrix type="matrix" values="0 0 0 0 0 0 0 0 0 0 0 0 0 0 0 0 0 0 1 0"/>
<feBlend mode="normal" in2="BackgroundImageFix" result="effect1_dropShadow"/>
<feColorMatrix in="SourceAlpha" type="matrix" values="0 0 0 0 0 0 0 0 0 0 0 0 0 0 0 0 0 0 127 0" result="hardAlpha"/>
<feOffset dx="-10" dy="-10"/>
<feGaussianBlur stdDeviation="6.5"/>
<feComposite in2="hardAlpha" operator="out"/>
<feColorMatrix type="matrix" values="0 0 0 0 1 0 0 0 0 1 0 0 0 0 1 0 0 0 0.15 0"/>
<feBlend mode="normal" in2="effect1_dropShadow" result="effect2_dropShadow"/>
<feBlend mode="normal" in="SourceGraphic" in2="effect2_dropShadow" result="shape"/>
<feColorMatrix in="SourceAlpha" type="matrix" values="0 0 0 0 0 0 0 0 0 0 0 0 0 0 0 0 0 0 127 0" result="hardAlpha"/>
<feOffset dx="-10" dy="-10"/>
<feGaussianBlur stdDeviation="6.5"/>
<feComposite in2="hardAlpha" operator="arithmetic" k2="-1" k3="1"/>
<feColorMatrix type="matrix" values="0 0 0 0 1 0 0 0 0 1 0 0 0 0 1 0 0 0 0.1 0"/>
<feBlend mode="normal" in2="shape" result="effect3_innerShadow"/>
<feColorMatrix in="SourceAlpha" type="matrix" values="0 0 0 0 0 0 0 0 0 0 0 0 0 0 0 0 0 0 127 0" result="hardAlpha"/>
<feOffset dx="10" dy="10"/>
<feGaussianBlur stdDeviation="6.5"/>
<feComposite in2="hardAlpha" operator="arithmetic" k2="-1" k3="1"/>
<feColorMatrix type="matrix" values="0 0 0 0 0 0 0 0 0 0 0 0 0 0 0 0 0 0 0.25 0"/>
<feBlend mode="normal" in2="effect3_innerShadow" result="effect4_innerShadow"/>
</filter>
<filter id="filter8_ddii" x="627" y="51" width="302" height="302" filterUnits="userSpaceOnUse" color-interpolation-filters="sRGB">
<feFlood flood-opacity="0" result="BackgroundImageFix"/>
<feColorMatrix in="SourceAlpha" type="matrix" values="0 0 0 0 0 0 0 0 0 0 0 0 0 0 0 0 0 0 127 0" result="hardAlpha"/>
<feOffset dx="10" dy="10"/>
<feGaussianBlur stdDeviation="6.5"/>
<feComposite in2="hardAlpha" operator="out"/>
<feColorMatrix type="matrix" values="0 0 0 0 0 0 0 0 0 0 0 0 0 0 0 0 0 0 1 0"/>
<feBlend mode="normal" in2="BackgroundImageFix" result="effect1_dropShadow"/>
<feColorMatrix in="SourceAlpha" type="matrix" values="0 0 0 0 0 0 0 0 0 0 0 0 0 0 0 0 0 0 127 0" result="hardAlpha"/>
<feOffset dx="-10" dy="-10"/>
<feGaussianBlur stdDeviation="6.5"/>
<feComposite in2="hardAlpha" operator="out"/>
<feColorMatrix type="matrix" values="0 0 0 0 1 0 0 0 0 1 0 0 0 0 1 0 0 0 0.15 0"/>
<feBlend mode="normal" in2="effect1_dropShadow" result="effect2_dropShadow"/>
<feBlend mode="normal" in="SourceGraphic" in2="effect2_dropShadow" result="shape"/>
<feColorMatrix in="SourceAlpha" type="matrix" values="0 0 0 0 0 0 0 0 0 0 0 0 0 0 0 0 0 0 127 0" result="hardAlpha"/>
<feOffset dx="-10" dy="-10"/>
<feGaussianBlur stdDeviation="6.5"/>
<feComposite in2="hardAlpha" operator="arithmetic" k2="-1" k3="1"/>
<feColorMatrix type="matrix" values="0 0 0 0 1 0 0 0 0 1 0 0 0 0 1 0 0 0 0.1 0"/>
<feBlend mode="normal" in2="shape" result="effect3_innerShadow"/>
<feColorMatrix in="SourceAlpha" type="matrix" values="0 0 0 0 0 0 0 0 0 0 0 0 0 0 0 0 0 0 127 0" result="hardAlpha"/>
<feOffset dx="10" dy="10"/>
<feGaussianBlur stdDeviation="6.5"/>
<feComposite in2="hardAlpha" operator="arithmetic" k2="-1" k3="1"/>
<feColorMatrix type="matrix" values="0 0 0 0 0 0 0 0 0 0 0 0 0 0 0 0 0 0 0.25 0"/>
<feBlend mode="normal" in2="effect3_innerShadow" result="effect4_innerShadow"/>
</filter>
<filter id="filter9_ddii" x="634" y="727" width="302" height="302" filterUnits="userSpaceOnUse" color-interpolation-filters="sRGB">
<feFlood flood-opacity="0" result="BackgroundImageFix"/>
<feColorMatrix in="SourceAlpha" type="matrix" values="0 0 0 0 0 0 0 0 0 0 0 0 0 0 0 0 0 0 127 0" result="hardAlpha"/>
<feOffset dx="10" dy="10"/>
<feGaussianBlur stdDeviation="6.5"/>
<feComposite in2="hardAlpha" operator="out"/>
<feColorMatrix type="matrix" values="0 0 0 0 0 0 0 0 0 0 0 0 0 0 0 0 0 0 1 0"/>
<feBlend mode="normal" in2="BackgroundImageFix" result="effect1_dropShadow"/>
<feColorMatrix in="SourceAlpha" type="matrix" values="0 0 0 0 0 0 0 0 0 0 0 0 0 0 0 0 0 0 127 0" result="hardAlpha"/>
<feOffset dx="-10" dy="-10"/>
<feGaussianBlur stdDeviation="6.5"/>
<feComposite in2="hardAlpha" operator="out"/>
<feColorMatrix type="matrix" values="0 0 0 0 1 0 0 0 0 1 0 0 0 0 1 0 0 0 0.15 0"/>
<feBlend mode="normal" in2="effect1_dropShadow" result="effect2_dropShadow"/>
<feBlend mode="normal" in="SourceGraphic" in2="effect2_dropShadow" result="shape"/>
<feColorMatrix in="SourceAlpha" type="matrix" values="0 0 0 0 0 0 0 0 0 0 0 0 0 0 0 0 0 0 127 0" result="hardAlpha"/>
<feOffset dx="-10" dy="-10"/>
<feGaussianBlur stdDeviation="6.5"/>
<feComposite in2="hardAlpha" operator="arithmetic" k2="-1" k3="1"/>
<feColorMatrix type="matrix" values="0 0 0 0 1 0 0 0 0 1 0 0 0 0 1 0 0 0 0.1 0"/>
<feBlend mode="normal" in2="shape" result="effect3_innerShadow"/>
<feColorMatrix in="SourceAlpha" type="matrix" values="0 0 0 0 0 0 0 0 0 0 0 0 0 0 0 0 0 0 127 0" result="hardAlpha"/>
<feOffset dx="10" dy="10"/>
<feGaussianBlur stdDeviation="6.5"/>
<feComposite in2="hardAlpha" operator="arithmetic" k2="-1" k3="1"/>
<feColorMatrix type="matrix" values="0 0 0 0 0 0 0 0 0 0 0 0 0 0 0 0 0 0 0.25 0"/>
<feBlend mode="normal" in2="effect3_innerShadow" result="effect4_innerShadow"/>
</filter>
<filter id="filter10_ddii" x="459" y="389" width="302" height="302" filterUnits="userSpaceOnUse" color-interpolation-filters="sRGB">
<feFlood flood-opacity="0" result="BackgroundImageFix"/>
<feColorMatrix in="SourceAlpha" type="matrix" values="0 0 0 0 0 0 0 0 0 0 0 0 0 0 0 0 0 0 127 0" result="hardAlpha"/>
<feOffset dx="10" dy="10"/>
<feGaussianBlur stdDeviation="6.5"/>
<feComposite in2="hardAlpha" operator="out"/>
<feColorMatrix type="matrix" values="0 0 0 0 0 0 0 0 0 0 0 0 0 0 0 0 0 0 1 0"/>
<feBlend mode="normal" in2="BackgroundImageFix" result="effect1_dropShadow"/>
<feColorMatrix in="SourceAlpha" type="matrix" values="0 0 0 0 0 0 0 0 0 0 0 0 0 0 0 0 0 0 127 0" result="hardAlpha"/>
<feOffset dx="-10" dy="-10"/>
<feGaussianBlur stdDeviation="6.5"/>
<feComposite in2="hardAlpha" operator="out"/>
<feColorMatrix type="matrix" values="0 0 0 0 1 0 0 0 0 1 0 0 0 0 1 0 0 0 0.15 0"/>
<feBlend mode="normal" in2="effect1_dropShadow" result="effect2_dropShadow"/>
<feBlend mode="normal" in="SourceGraphic" in2="effect2_dropShadow" result="shape"/>
<feColorMatrix in="SourceAlpha" type="matrix" values="0 0 0 0 0 0 0 0 0 0 0 0 0 0 0 0 0 0 127 0" result="hardAlpha"/>
<feOffset dx="-10" dy="-10"/>
<feGaussianBlur stdDeviation="6.5"/>
<feComposite in2="hardAlpha" operator="arithmetic" k2="-1" k3="1"/>
<feColorMatrix type="matrix" values="0 0 0 0 1 0 0 0 0 1 0 0 0 0 1 0 0 0 0.1 0"/>
<feBlend mode="normal" in2="shape" result="effect3_innerShadow"/>
<feColorMatrix in="SourceAlpha" type="matrix" values="0 0 0 0 0 0 0 0 0 0 0 0 0 0 0 0 0 0 127 0" result="hardAlpha"/>
<feOffset dx="10" dy="10"/>
<feGaussianBlur stdDeviation="6.5"/>
<feComposite in2="hardAlpha" operator="arithmetic" k2="-1" k3="1"/>
<feColorMatrix type="matrix" values="0 0 0 0 0 0 0 0 0 0 0 0 0 0 0 0 0 0 0.25 0"/>
<feBlend mode="normal" in2="effect3_innerShadow" result="effect4_innerShadow"/>
</filter>
<filter id="filter11_ddii" x="1334" y="51" width="302" height="302" filterUnits="userSpaceOnUse" color-interpolation-filters="sRGB">
<feFlood flood-opacity="0" result="BackgroundImageFix"/>
<feColorMatrix in="SourceAlpha" type="matrix" values="0 0 0 0 0 0 0 0 0 0 0 0 0 0 0 0 0 0 127 0" result="hardAlpha"/>
<feOffset dx="10" dy="10"/>
<feGaussianBlur stdDeviation="6.5"/>
<feComposite in2="hardAlpha" operator="out"/>
<feColorMatrix type="matrix" values="0 0 0 0 0 0 0 0 0 0 0 0 0 0 0 0 0 0 1 0"/>
<feBlend mode="normal" in2="BackgroundImageFix" result="effect1_dropShadow"/>
<feColorMatrix in="SourceAlpha" type="matrix" values="0 0 0 0 0 0 0 0 0 0 0 0 0 0 0 0 0 0 127 0" result="hardAlpha"/>
<feOffset dx="-10" dy="-10"/>
<feGaussianBlur stdDeviation="6.5"/>
<feComposite in2="hardAlpha" operator="out"/>
<feColorMatrix type="matrix" values="0 0 0 0 1 0 0 0 0 1 0 0 0 0 1 0 0 0 0.15 0"/>
<feBlend mode="normal" in2="effect1_dropShadow" result="effect2_dropShadow"/>
<feBlend mode="normal" in="SourceGraphic" in2="effect2_dropShadow" result="shape"/>
<feColorMatrix in="SourceAlpha" type="matrix" values="0 0 0 0 0 0 0 0 0 0 0 0 0 0 0 0 0 0 127 0" result="hardAlpha"/>
<feOffset dx="-10" dy="-10"/>
<feGaussianBlur stdDeviation="6.5"/>
<feComposite in2="hardAlpha" operator="arithmetic" k2="-1" k3="1"/>
<feColorMatrix type="matrix" values="0 0 0 0 1 0 0 0 0 1 0 0 0 0 1 0 0 0 0.1 0"/>
<feBlend mode="normal" in2="shape" result="effect3_innerShadow"/>
<feColorMatrix in="SourceAlpha" type="matrix" values="0 0 0 0 0 0 0 0 0 0 0 0 0 0 0 0 0 0 127 0" result="hardAlpha"/>
<feOffset dx="10" dy="10"/>
<feGaussianBlur stdDeviation="6.5"/>
<feComposite in2="hardAlpha" operator="arithmetic" k2="-1" k3="1"/>
<feColorMatrix type="matrix" values="0 0 0 0 0 0 0 0 0 0 0 0 0 0 0 0 0 0 0.25 0"/>
<feBlend mode="normal" in2="effect3_innerShadow" result="effect4_innerShadow"/>
</filter>
<filter id="filter12_ddii" x="1334" y="727" width="302" height="302" filterUnits="userSpaceOnUse" color-interpolation-filters="sRGB">
<feFlood flood-opacity="0" result="BackgroundImageFix"/>
<feColorMatrix in="SourceAlpha" type="matrix" values="0 0 0 0 0 0 0 0 0 0 0 0 0 0 0 0 0 0 127 0" result="hardAlpha"/>
<feOffset dx="10" dy="10"/>
<feGaussianBlur stdDeviation="6.5"/>
<feComposite in2="hardAlpha" operator="out"/>
<feColorMatrix type="matrix" values="0 0 0 0 0 0 0 0 0 0 0 0 0 0 0 0 0 0 1 0"/>
<feBlend mode="normal" in2="BackgroundImageFix" result="effect1_dropShadow"/>
<feColorMatrix in="SourceAlpha" type="matrix" values="0 0 0 0 0 0 0 0 0 0 0 0 0 0 0 0 0 0 127 0" result="hardAlpha"/>
<feOffset dx="-10" dy="-10"/>
<feGaussianBlur stdDeviation="6.5"/>
<feComposite in2="hardAlpha" operator="out"/>
<feColorMatrix type="matrix" values="0 0 0 0 1 0 0 0 0 1 0 0 0 0 1 0 0 0 0.15 0"/>
<feBlend mode="normal" in2="effect1_dropShadow" result="effect2_dropShadow"/>
<feBlend mode="normal" in="SourceGraphic" in2="effect2_dropShadow" result="shape"/>
<feColorMatrix in="SourceAlpha" type="matrix" values="0 0 0 0 0 0 0 0 0 0 0 0 0 0 0 0 0 0 127 0" result="hardAlpha"/>
<feOffset dx="-10" dy="-10"/>
<feGaussianBlur stdDeviation="6.5"/>
<feComposite in2="hardAlpha" operator="arithmetic" k2="-1" k3="1"/>
<feColorMatrix type="matrix" values="0 0 0 0 1 0 0 0 0 1 0 0 0 0 1 0 0 0 0.1 0"/>
<feBlend mode="normal" in2="shape" result="effect3_innerShadow"/>
<feColorMatrix in="SourceAlpha" type="matrix" values="0 0 0 0 0 0 0 0 0 0 0 0 0 0 0 0 0 0 127 0" result="hardAlpha"/>
<feOffset dx="10" dy="10"/>
<feGaussianBlur stdDeviation="6.5"/>
<feComposite in2="hardAlpha" operator="arithmetic" k2="-1" k3="1"/>
<feColorMatrix type="matrix" values="0 0 0 0 0 0 0 0 0 0 0 0 0 0 0 0 0 0 0.25 0"/>
<feBlend mode="normal" in2="effect3_innerShadow" result="effect4_innerShadow"/>
</filter>
<filter id="filter13_ddii" x="1159" y="389" width="302" height="302" filterUnits="userSpaceOnUse" color-interpolation-filters="sRGB">
<feFlood flood-opacity="0" result="BackgroundImageFix"/>
<feColorMatrix in="SourceAlpha" type="matrix" values="0 0 0 0 0 0 0 0 0 0 0 0 0 0 0 0 0 0 127 0" result="hardAlpha"/>
<feOffset dx="10" dy="10"/>
<feGaussianBlur stdDeviation="6.5"/>
<feComposite in2="hardAlpha" operator="out"/>
<feColorMatrix type="matrix" values="0 0 0 0 0 0 0 0 0 0 0 0 0 0 0 0 0 0 1 0"/>
<feBlend mode="normal" in2="BackgroundImageFix" result="effect1_dropShadow"/>
<feColorMatrix in="SourceAlpha" type="matrix" values="0 0 0 0 0 0 0 0 0 0 0 0 0 0 0 0 0 0 127 0" result="hardAlpha"/>
<feOffset dx="-10" dy="-10"/>
<feGaussianBlur stdDeviation="6.5"/>
<feComposite in2="hardAlpha" operator="out"/>
<feColorMatrix type="matrix" values="0 0 0 0 1 0 0 0 0 1 0 0 0 0 1 0 0 0 0.15 0"/>
<feBlend mode="normal" in2="effect1_dropShadow" result="effect2_dropShadow"/>
<feBlend mode="normal" in="SourceGraphic" in2="effect2_dropShadow" result="shape"/>
<feColorMatrix in="SourceAlpha" type="matrix" values="0 0 0 0 0 0 0 0 0 0 0 0 0 0 0 0 0 0 127 0" result="hardAlpha"/>
<feOffset dx="-10" dy="-10"/>
<feGaussianBlur stdDeviation="6.5"/>
<feComposite in2="hardAlpha" operator="arithmetic" k2="-1" k3="1"/>
<feColorMatrix type="matrix" values="0 0 0 0 1 0 0 0 0 1 0 0 0 0 1 0 0 0 0.1 0"/>
<feBlend mode="normal" in2="shape" result="effect3_innerShadow"/>
<feColorMatrix in="SourceAlpha" type="matrix" values="0 0 0 0 0 0 0 0 0 0 0 0 0 0 0 0 0 0 127 0" result="hardAlpha"/>
<feOffset dx="10" dy="10"/>
<feGaussianBlur stdDeviation="6.5"/>
<feComposite in2="hardAlpha" operator="arithmetic" k2="-1" k3="1"/>
<feColorMatrix type="matrix" values="0 0 0 0 0 0 0 0 0 0 0 0 0 0 0 0 0 0 0.25 0"/>
<feBlend mode="normal" in2="effect3_innerShadow" result="effect4_innerShadow"/>
</filter>
<filter id="filter14_ddii" x="1509" y="389" width="302" height="302" filterUnits="userSpaceOnUse" color-interpolation-filters="sRGB">
<feFlood flood-opacity="0" result="BackgroundImageFix"/>
<feColorMatrix in="SourceAlpha" type="matrix" values="0 0 0 0 0 0 0 0 0 0 0 0 0 0 0 0 0 0 127 0" result="hardAlpha"/>
<feOffset dx="10" dy="10"/>
<feGaussianBlur stdDeviation="6.5"/>
<feComposite in2="hardAlpha" operator="out"/>
<feColorMatrix type="matrix" values="0 0 0 0 0 0 0 0 0 0 0 0 0 0 0 0 0 0 1 0"/>
<feBlend mode="normal" in2="BackgroundImageFix" result="effect1_dropShadow"/>
<feColorMatrix in="SourceAlpha" type="matrix" values="0 0 0 0 0 0 0 0 0 0 0 0 0 0 0 0 0 0 127 0" result="hardAlpha"/>
<feOffset dx="-10" dy="-10"/>
<feGaussianBlur stdDeviation="6.5"/>
<feComposite in2="hardAlpha" operator="out"/>
<feColorMatrix type="matrix" values="0 0 0 0 1 0 0 0 0 1 0 0 0 0 1 0 0 0 0.15 0"/>
<feBlend mode="normal" in2="effect1_dropShadow" result="effect2_dropShadow"/>
<feBlend mode="normal" in="SourceGraphic" in2="effect2_dropShadow" result="shape"/>
<feColorMatrix in="SourceAlpha" type="matrix" values="0 0 0 0 0 0 0 0 0 0 0 0 0 0 0 0 0 0 127 0" result="hardAlpha"/>
<feOffset dx="-10" dy="-10"/>
<feGaussianBlur stdDeviation="6.5"/>
<feComposite in2="hardAlpha" operator="arithmetic" k2="-1" k3="1"/>
<feColorMatrix type="matrix" values="0 0 0 0 1 0 0 0 0 1 0 0 0 0 1 0 0 0 0.1 0"/>
<feBlend mode="normal" in2="shape" result="effect3_innerShadow"/>
<feColorMatrix in="SourceAlpha" type="matrix" values="0 0 0 0 0 0 0 0 0 0 0 0 0 0 0 0 0 0 127 0" result="hardAlpha"/>
<feOffset dx="10" dy="10"/>
<feGaussianBlur stdDeviation="6.5"/>
<feComposite in2="hardAlpha" operator="arithmetic" k2="-1" k3="1"/>
<feColorMatrix type="matrix" values="0 0 0 0 0 0 0 0 0 0 0 0 0 0 0 0 0 0 0.25 0"/>
<feBlend mode="normal" in2="effect3_innerShadow" result="effect4_innerShadow"/>
</filter>
<linearGradient id="paint0_linear" x1="307" y1="74" x2="563" y2="330" gradientUnits="userSpaceOnUse">
<stop stop-color="#202020"/>
<stop offset="0.489583" stop-color="#303030"/>
<stop offset="1" stop-color="#404040"/>
</linearGradient>
<linearGradient id="paint1_linear" x1="307" y1="750" x2="563" y2="1006" gradientUnits="userSpaceOnUse">
<stop stop-color="#202020"/>
<stop offset="0.489583" stop-color="#303030"/>
<stop offset="1" stop-color="#404040"/>
</linearGradient>
<linearGradient id="paint2_linear" x1="132" y1="412" x2="388" y2="668" gradientUnits="userSpaceOnUse">
<stop stop-color="#202020"/>
<stop offset="0.489583" stop-color="#303030"/>
<stop offset="1" stop-color="#404040"/>
</linearGradient>
<linearGradient id="paint3_linear" x1="1007" y1="74" x2="1263" y2="330" gradientUnits="userSpaceOnUse">
<stop stop-color="#202020"/>
<stop offset="0.489583" stop-color="#303030"/>
<stop offset="1" stop-color="#404040"/>
</linearGradient>
<linearGradient id="paint4_linear" x1="1007" y1="750" x2="1263" y2="1006" gradientUnits="userSpaceOnUse">
<stop stop-color="#202020"/>
<stop offset="0.489583" stop-color="#303030"/>
<stop offset="1" stop-color="#404040"/>
</linearGradient>
<linearGradient id="paint5_linear" x1="832" y1="412" x2="1088" y2="668" gradientUnits="userSpaceOnUse">
<stop stop-color="#202020"/>
<stop offset="0.489583" stop-color="#303030"/>
<stop offset="1" stop-color="#404040"/>
</linearGradient>
<linearGradient id="paint6_linear" x1="871" y1="442" x2="976.846" y2="525.337" gradientUnits="userSpaceOnUse">
<stop stop-color="#5A9FD4"/>
<stop offset="1" stop-color="#306998"/>
</linearGradient>
<linearGradient id="paint7_linear" x1="983.352" y1="611.619" x2="943.891" y2="560.527" gradientUnits="userSpaceOnUse">
<stop stop-color="#FFD43B"/>
<stop offset="1" stop-color="#FFE873"/>
</linearGradient>
<linearGradient id="paint8_linear" x1="650" y1="74" x2="906" y2="330" gradientUnits="userSpaceOnUse">
<stop stop-color="#202020"/>
<stop offset="0.489583" stop-color="#303030"/>
<stop offset="1" stop-color="#404040"/>
</linearGradient>
<linearGradient id="paint9_linear" x1="657" y1="750" x2="913" y2="1006" gradientUnits="userSpaceOnUse">
<stop stop-color="#202020"/>
<stop offset="0.489583" stop-color="#303030"/>
<stop offset="1" stop-color="#404040"/>
</linearGradient>
<linearGradient id="paint10_linear" x1="482" y1="412" x2="738" y2="668" gradientUnits="userSpaceOnUse">
<stop stop-color="#202020"/>
<stop offset="0.489583" stop-color="#303030"/>
<stop offset="1" stop-color="#404040"/>
</linearGradient>
<linearGradient id="paint11_linear" x1="1357" y1="74" x2="1613" y2="330" gradientUnits="userSpaceOnUse">
<stop stop-color="#202020"/>
<stop offset="0.489583" stop-color="#303030"/>
<stop offset="1" stop-color="#404040"/>
</linearGradient>
<linearGradient id="paint12_linear" x1="1357" y1="750" x2="1613" y2="1006" gradientUnits="userSpaceOnUse">
<stop stop-color="#202020"/>
<stop offset="0.489583" stop-color="#303030"/>
<stop offset="1" stop-color="#404040"/>
</linearGradient>
<linearGradient id="paint13_linear" x1="1182" y1="412" x2="1438" y2="668" gradientUnits="userSpaceOnUse">
<stop stop-color="#202020"/>
<stop offset="0.489583" stop-color="#303030"/>
<stop offset="1" stop-color="#404040"/>
</linearGradient>
<linearGradient id="paint14_linear" x1="1532" y1="412" x2="1788" y2="668" gradientUnits="userSpaceOnUse">
<stop stop-color="#202020"/>
<stop offset="0.489583" stop-color="#303030"/>
<stop offset="1" stop-color="#404040"/>
</linearGradient>
<clipPath id="clip0">
<rect x="132" y="412" width="256" height="256" rx="128" fill="white"/>
</clipPath>
</defs>
</svg>
