<svg xmlns="http://www.w3.org/2000/svg" xmlns:xlink="http://www.w3.org/1999/xlink" width="0" height="0" style="display:none;"><symbol viewBox="0 0 24 24" id="github-fill"><path d="M12.001 2C6.47598 2 2.00098 6.475 2.00098 12C2.00098 16.425 4.86348 20.1625 8.83848 21.4875C9.33848 21.575 9.52598 21.275 9.52598 21.0125C9.52598 20.775 9.51348 19.9875 9.51348 19.15C7.00098 19.6125 6.35098 18.5375 6.15098 17.975C6.03848 17.6875 5.55098 16.8 5.12598 16.5625C4.77598 16.375 4.27598 15.9125 5.11348 15.9C5.90098 15.8875 6.46348 16.625 6.65098 16.925C7.55098 18.4375 8.98848 18.0125 9.56348 17.75C9.65098 17.1 9.91348 16.6625 10.201 16.4125C7.97598 16.1625 5.65098 15.3 5.65098 11.475C5.65098 10.3875 6.03848 9.4875 6.67598 8.7875C6.57598 8.5375 6.22598 7.5125 6.77598 6.1375C6.77598 6.1375 7.61348 5.875 9.52598 7.1625C10.326 6.9375 11.176 6.825 12.026 6.825C12.876 6.825 13.726 6.9375 14.526 7.1625C16.4385 5.8625 17.276 6.1375 17.276 6.1375C17.826 7.5125 17.476 8.5375 17.376 8.7875C18.0135 9.4875 18.401 10.375 18.401 11.475C18.401 15.3125 16.0635 16.1625 13.8385 16.4125C14.201 16.725 14.5135 17.325 14.5135 18.2625C14.5135 19.6 14.501 20.675 14.501 21.0125C14.501 21.275 14.6885 21.5875 15.1885 21.4875C19.259 20.1133 21.9999 16.2963 22.001 12C22.001 6.475 17.526 2 12.001 2Z"></path></symbol><symbol viewBox="0 0 24 24" id="stack-overflow-fill"><path d="M18.001 20.0026V14.6693H20.001V22.0026H4.00098V14.6693H6.00098V20.0026H18.001ZM7.59977 14.7359L7.913 12.7566L16.75 14.456L16.6367 16.0421L7.59977 14.7359ZM8.79937 10.2041L9.53245 8.60463L17.5298 12.3367L16.7967 13.9362L8.79937 10.2041ZM11.0653 6.27208L12.1982 4.9392L18.9959 10.604L17.863 11.9368L11.0653 6.27208ZM15.3972 2.14014L20.6621 9.20443L19.2625 10.2707L13.9976 3.20645L15.3972 2.14014ZM7.33319 18.6679V16.6686H16.6634V18.6679H7.33319Z"></path></symbol><symbol viewBox="0 0 24 24" id="linkedin-box-fill"><path d="M18.3362 18.339H15.6707V14.1622C15.6707 13.1662 15.6505 11.8845 14.2817 11.8845C12.892 11.8845 12.6797 12.9683 12.6797 14.0887V18.339H10.0142V9.75H12.5747V10.9207H12.6092C12.967 10.2457 13.837 9.53325 15.1367 9.53325C17.8375 9.53325 18.337 11.3108 18.337 13.6245V18.339H18.3362ZM7.00373 8.57475C6.14573 8.57475 5.45648 7.88025 5.45648 7.026C5.45648 6.1725 6.14648 5.47875 7.00373 5.47875C7.85873 5.47875 8.55173 6.1725 8.55173 7.026C8.55173 7.88025 7.85798 8.57475 7.00373 8.57475ZM8.34023 18.339H5.66723V9.75H8.34023V18.339ZM19.6697 3H4.32923C3.59498 3 3.00098 3.5805 3.00098 4.29675V19.7033C3.00098 20.4202 3.59498 21 4.32923 21H19.6675C20.401 21 21.001 20.4202 21.001 19.7033V4.29675C21.001 3.5805 20.401 3 19.6675 3H19.6697Z"></path></symbol><symbol viewBox="0 0 24 24" id="telegram-fill"><path d="M22 12C22 17.5228 17.5228 22 12 22C6.47715 22 2 17.5228 2 12C2 6.47715 6.47715 2 12 2C17.5228 2 22 6.47715 22 12ZM12.3584 9.38246C11.3857 9.78702 9.4418 10.6244 6.5266 11.8945C6.05321 12.0827 5.80524 12.2669 5.78266 12.4469C5.74451 12.7513 6.12561 12.8711 6.64458 13.0343C6.71517 13.0565 6.78832 13.0795 6.8633 13.1039C7.37388 13.2698 8.06071 13.464 8.41776 13.4717C8.74164 13.4787 9.10313 13.3452 9.50222 13.0711C12.226 11.2325 13.632 10.3032 13.7203 10.2832C13.7826 10.269 13.8689 10.2513 13.9273 10.3032C13.9858 10.3552 13.98 10.4536 13.9739 10.48C13.9361 10.641 12.4401 12.0318 11.666 12.7515C11.4351 12.9661 11.2101 13.1853 10.9833 13.4039C10.509 13.8611 10.1533 14.204 11.003 14.764C11.8644 15.3317 12.7323 15.8982 13.5724 16.4971C13.9867 16.7925 14.359 17.0579 14.8188 17.0156C15.0861 16.991 15.3621 16.7397 15.5022 15.9903C15.8335 14.2193 16.4847 10.3821 16.6352 8.80083C16.6484 8.6623 16.6318 8.485 16.6185 8.40717C16.6052 8.32934 16.5773 8.21844 16.4762 8.13635C16.3563 8.03913 16.1714 8.01863 16.0887 8.02009C15.7125 8.02672 15.1355 8.22737 12.3584 9.38246Z"></path></symbol><symbol viewBox="0 0 24 24" id="mail-fill"><path d="M3 3H21C21.5523 3 22 3.44772 22 4V20C22 20.5523 21.5523 21 21 21H3C2.44772 21 2 20.5523 2 20V4C2 3.44772 2.44772 3 3 3ZM12.0606 11.6829L5.64722 6.2377L4.35278 7.7623L12.0731 14.3171L19.6544 7.75616L18.3456 6.24384L12.0606 11.6829Z"></path></symbol><symbol viewBox="0 0 24 24" id="discord-fill"><path d="M19.3034 5.33716C17.9344 4.71103 16.4805 4.2547 14.9629 4C14.7719 4.32899 14.5596 4.77471 14.411 5.12492C12.7969 4.89144 11.1944 4.89144 9.60255 5.12492C9.45397 4.77471 9.2311 4.32899 9.05068 4C7.52251 4.2547 6.06861 4.71103 4.70915 5.33716C1.96053 9.39111 1.21766 13.3495 1.5891 17.2549C3.41443 18.5815 5.17612 19.388 6.90701 19.9187C7.33151 19.3456 7.71356 18.73 8.04255 18.0827C7.41641 17.8492 6.82211 17.5627 6.24904 17.2231C6.39762 17.117 6.5462 17.0003 6.68416 16.8835C10.1438 18.4648 13.8911 18.4648 17.3082 16.8835C17.4568 17.0003 17.5948 17.117 17.7434 17.2231C17.1703 17.5627 16.576 17.8492 15.9499 18.0827C16.2789 18.73 16.6609 19.3456 17.0854 19.9187C18.8152 19.388 20.5875 18.5815 22.4033 17.2549C22.8596 12.7341 21.6806 8.80747 19.3034 5.33716ZM8.5201 14.8459C7.48007 14.8459 6.63107 13.9014 6.63107 12.7447C6.63107 11.5879 7.45884 10.6434 8.5201 10.6434C9.57071 10.6434 10.4303 11.5879 10.4091 12.7447C10.4091 13.9014 9.57071 14.8459 8.5201 14.8459ZM15.4936 14.8459C14.4535 14.8459 13.6034 13.9014 13.6034 12.7447C13.6034 11.5879 14.4323 10.6434 15.4936 10.6434C16.5442 10.6434 17.4038 11.5879 17.3825 12.7447C17.3825 13.9014 16.5548 14.8459 15.4936 14.8459Z"></path></symbol></svg>