<svg id="visual" viewBox="0 0 900 600" width="9000" height="6000" xmlns="http://www.w3.org/2000/svg" xmlns:xlink="http://www.w3.org/1999/xlink" version="1.1"><rect width="900" height="600" fill="#00112200"></rect><g><g transform="translate(170 8)"><path d="M35.8 -36.2C43.2 -28.4 43.8 -14.2 44.9 1.1C46 16.4 47.6 32.8 40.2 40.7C32.8 48.6 16.4 47.9 4.9 43C-6.6 38.1 -13.2 28.9 -18.7 21C-24.3 13.2 -28.8 6.6 -32.5 -3.7C-36.2 -14 -39 -27.9 -33.5 -35.7C-27.9 -43.5 -14 -45.1 0.1 -45.2C14.2 -45.3 28.4 -44 35.8 -36.2Z" fill="#C62368"></path></g><g transform="translate(343 405)"><path d="M33.3 -31.6C40.8 -25.8 42.8 -12.9 42.6 -0.1C42.5 12.6 40.2 25.3 32.7 33.3C25.3 41.4 12.6 44.8 1.8 43.1C-9 41.3 -18.1 34.2 -25.9 26.1C-33.8 18.1 -40.4 9 -44 -3.6C-47.6 -16.2 -48.1 -32.4 -40.2 -38.1C-32.4 -43.9 -16.2 -39.2 -1.6 -37.6C12.9 -35.9 25.8 -37.3 33.3 -31.6Z" fill="#C62368"></path></g><g transform="translate(823 268)"><path d="M6.4 -7.3C8.7 -4.2 11.1 -2.1 12 0.9C12.9 4 12.4 7.9 10.2 10.9C7.9 13.9 4 15.9 0.3 15.6C-3.4 15.4 -6.8 12.8 -9.8 9.8C-12.8 6.8 -15.4 3.4 -15.3 0.1C-15.2 -3.2 -12.3 -6.3 -9.3 -9.4C-6.3 -12.6 -3.2 -15.7 -0.5 -15.2C2.1 -14.6 4.2 -10.4 6.4 -7.3Z" fill="#C62368"></path></g><g transform="translate(467 161)"><path d="M17.5 -17.3C23.5 -11.5 29.7 -5.7 30 0.3C30.3 6.3 24.6 12.6 18.6 18.7C12.6 24.9 6.3 30.9 -0.1 31C-6.4 31.1 -12.9 25.2 -16.3 19C-19.7 12.9 -20 6.4 -21.7 -1.6C-23.3 -9.7 -26.1 -19.3 -22.7 -25.1C-19.3 -30.8 -9.7 -32.7 -2 -30.7C5.7 -28.8 11.5 -23 17.5 -17.3Z" fill="#C62368"></path></g><g transform="translate(760 489)"><path d="M14.9 -17.2C18.8 -11 21.1 -5.5 20.9 -0.1C20.8 5.2 18.2 10.4 14.3 18.2C10.4 25.9 5.2 36.1 -1.9 38.1C-9.1 40 -18.2 33.7 -25.1 26C-31.9 18.2 -36.4 9.1 -34.9 1.5C-33.3 -6 -25.7 -12 -18.9 -18.3C-12 -24.5 -6 -30.9 -0.3 -30.7C5.5 -30.4 11 -23.4 14.9 -17.2Z" fill="#C62368"></path></g><g transform="translate(374 552)"><path d="M11.1 -12.5C13.5 -8.7 14 -4.4 13.3 -0.7C12.6 2.9 10.7 5.8 8.3 7.9C5.8 9.9 2.9 11 -1.6 12.6C-6.1 14.2 -12.1 16.2 -14.3 14.1C-16.6 12.1 -15 6.1 -14.6 0.4C-14.3 -5.3 -15.1 -10.6 -12.9 -14.4C-10.6 -18.2 -5.3 -20.4 -0.5 -19.9C4.4 -19.5 8.7 -16.3 11.1 -12.5Z" fill="#C62368"></path></g><g transform="translate(169 542)"><path d="M16.3 -15.6C20.6 -11.9 23.3 -6 26 2.6C28.6 11.3 31.2 22.5 26.9 26.5C22.5 30.5 11.3 27.3 1.6 25.7C-8.1 24.1 -16.2 24.2 -22.2 20.2C-28.3 16.2 -32.2 8.1 -31.1 1.1C-29.9 -5.8 -23.7 -11.6 -17.6 -15.3C-11.6 -19 -5.8 -20.5 0.1 -20.6C6 -20.7 11.9 -19.3 16.3 -15.6Z" fill="#C62368"></path></g><g transform="translate(744 39)"><path d="M12.8 -11C17.3 -8.3 22.1 -4.2 22.4 0.3C22.7 4.7 18.4 9.4 13.9 12.5C9.4 15.5 4.7 16.9 0.6 16.4C-3.6 15.8 -7.1 13.2 -9.7 10.2C-12.2 7.1 -13.8 3.6 -13.9 -0.1C-14 -3.8 -12.7 -7.6 -10.1 -10.3C-7.6 -12.9 -3.8 -14.5 0.2 -14.7C4.2 -14.9 8.3 -13.7 12.8 -11Z" fill="#C62368"></path></g><g transform="translate(538 412)"><path d="M31.9 -33.1C39.5 -24.3 42.5 -12.2 41.2 -1.2C40 9.7 34.5 19.3 26.9 24.7C19.3 30.1 9.7 31.1 0.1 31C-9.5 30.9 -18.9 29.7 -25 24.3C-31.1 18.9 -33.8 9.5 -31.7 2C-29.7 -5.4 -23 -10.8 -16.9 -19.6C-10.8 -28.4 -5.4 -40.6 3.4 -43.9C12.2 -47.3 24.3 -41.9 31.9 -33.1Z" fill="#C62368"></path></g><g transform="translate(639 185)"><path d="M26.8 -24.9C34.4 -19.1 40.2 -9.6 42.4 2.2C44.6 14 43.3 28 35.7 35.5C28 42.9 14 43.8 2 41.8C-10.1 39.9 -20.2 35.1 -30.4 27.6C-40.6 20.2 -50.9 10.1 -53.2 -2.4C-55.6 -14.8 -50 -29.6 -39.8 -35.3C-29.6 -41.1 -14.8 -37.7 -2.6 -35.1C9.6 -32.5 19.1 -30.6 26.8 -24.9Z" fill="#C62368"></path></g><g transform="translate(571 31)"><path d="M34.3 -41C39 -29.6 33.6 -14.8 30.6 -3C27.5 8.7 26.9 17.5 22.2 27.3C17.5 37.1 8.7 48 -2.9 50.9C-14.5 53.8 -29 48.7 -39.1 38.9C-49.1 29 -54.7 14.5 -54.9 -0.3C-55.2 -15 -50.2 -30.1 -40.1 -41.5C-30.1 -52.9 -15 -60.7 -0.1 -60.6C14.8 -60.4 29.6 -52.4 34.3 -41Z" fill="#C62368"></path></g><g transform="translate(878 114)"><path d="M20.8 -18.3C25.6 -16 27.2 -8 26.3 -0.9C25.4 6.1 21.9 12.2 17 17.6C12.2 22.9 6.1 27.4 0.9 26.5C-4.3 25.5 -8.6 19.2 -12.4 13.9C-16.2 8.6 -19.6 4.3 -19.6 -0.1C-19.7 -4.5 -16.6 -8.9 -12.7 -11.3C-8.9 -13.7 -4.5 -14 1.8 -15.8C8 -17.6 16 -20.7 20.8 -18.3Z" fill="#C62368"></path></g><g transform="translate(41 328)"><path d="M26.5 -30.1C33.7 -19.4 38.2 -9.7 40.7 2.4C43.1 14.5 43.3 29 36.2 33.5C29 37.9 14.5 32.3 1.2 31.2C-12.2 30 -24.3 33.2 -34.5 28.8C-44.6 24.3 -52.6 12.2 -52.2 0.4C-51.8 -11.3 -42.8 -22.6 -32.7 -33.3C-22.6 -44 -11.3 -54.2 -0.8 -53.4C9.7 -52.6 19.4 -40.8 26.5 -30.1Z" fill="#C62368"></path></g><g transform="translate(51 170)"><path d="M9.7 -12.3C12.5 -6.9 14.6 -3.4 15 0.4C15.4 4.2 14 8.4 11.2 10.9C8.4 13.5 4.2 14.5 -1.8 16.2C-7.7 18 -15.5 20.6 -18.6 18C-21.7 15.5 -20.2 7.7 -18.2 1.9C-16.3 -3.9 -14 -7.7 -10.9 -13.2C-7.7 -18.6 -3.9 -25.7 -0.2 -25.4C3.4 -25.2 6.9 -17.8 9.7 -12.3Z" fill="#C62368"></path></g><g transform="translate(321 106)"><path d="M18.4 -16.9C24.9 -12 31.9 -6 32.4 0.5C32.9 7 26.9 14 20.4 19.7C14 25.4 7 29.9 -0.1 30.1C-7.2 30.2 -14.5 26 -17.3 20.2C-20.1 14.5 -18.4 7.2 -16.6 1.8C-14.8 -3.6 -12.8 -7.2 -10 -12.2C-7.2 -17.2 -3.6 -23.6 1.2 -24.8C6 -26 12 -21.9 18.4 -16.9Z" fill="#C62368"></path></g><g transform="translate(1 593)"><path d="M25.7 -23C32.9 -18.6 38 -9.3 36.4 -1.6C34.9 6.1 26.6 12.3 19.5 18C12.3 23.6 6.1 28.9 -2 30.9C-10.1 32.9 -20.2 31.6 -27.2 25.9C-34.2 20.2 -38.1 10.1 -38.2 -0.1C-38.3 -10.3 -34.6 -20.6 -27.6 -25C-20.6 -29.4 -10.3 -27.9 -0.5 -27.4C9.3 -26.9 18.6 -27.4 25.7 -23Z" fill="#C62368"></path></g><g transform="translate(224 316)"><path d="M15.5 -14.9C18.1 -13 16.6 -6.5 15.3 -1.3C13.9 3.8 12.7 7.6 10.2 10.7C7.6 13.8 3.8 16.2 0.1 16C-3.5 15.9 -7 13.2 -11.2 10.1C-15.3 7 -20 3.5 -21.4 -1.4C-22.8 -6.3 -20.8 -12.5 -16.7 -14.4C-12.5 -16.4 -6.3 -13.9 0.1 -14C6.5 -14.1 13 -16.8 15.5 -14.9Z" fill="#C62368"></path></g><g transform="translate(544 598)"><path d="M12.7 -13.1C15.7 -9.6 17 -4.8 17.1 0C17.1 4.9 15.9 9.8 12.8 12.4C9.8 15.1 4.9 15.6 0.8 14.8C-3.3 14 -6.6 11.9 -8.8 9.3C-11.1 6.6 -12.3 3.3 -12 0.3C-11.8 -2.8 -10.1 -5.5 -7.8 -9C-5.5 -12.5 -2.8 -16.7 1 -17.8C4.8 -18.8 9.6 -16.6 12.7 -13.1Z" fill="#C62368"></path></g><g transform="translate(5 23)"><path d="M5.5 -5.5C7.4 -3.5 9.5 -1.8 10.4 0.8C11.2 3.4 10.7 6.8 8.7 7.8C6.8 8.8 3.4 7.4 0.7 6.7C-1.9 5.9 -3.8 5.8 -6 4.8C-8.2 3.8 -10.7 1.9 -11.1 -0.4C-11.5 -2.7 -9.7 -5.3 -7.5 -7.2C-5.3 -9.2 -2.7 -10.4 -0.4 -9.9C1.8 -9.5 3.5 -7.4 5.5 -5.5Z" fill="#C62368"></path></g><g transform="translate(894 570)"><path d="M31.8 -30.7C40.2 -23.4 45.3 -11.7 43.7 -1.6C42.1 8.5 33.9 17.1 25.5 21.3C17.1 25.5 8.5 25.5 -0.9 26.4C-10.4 27.4 -20.8 29.3 -24.8 25C-28.8 20.8 -26.3 10.4 -26.1 0.3C-25.8 -9.9 -27.8 -19.8 -23.8 -27.1C-19.8 -34.4 -9.9 -39.2 0.9 -40.1C11.7 -41 23.4 -38.1 31.8 -30.7Z" fill="#C62368"></path></g><g transform="translate(681 329)"><path d="M32.2 -37.2C37 -27.5 32.7 -13.7 29.4 -3.3C26 7.1 23.6 14.1 18.9 20.9C14.1 27.8 7.1 34.4 -3.4 37.8C-13.8 41.1 -27.6 41.3 -36.1 34.4C-44.6 27.6 -47.8 13.8 -47 0.7C-46.3 -12.4 -41.7 -24.7 -33.2 -34.4C-24.7 -44.1 -12.4 -51.1 0.7 -51.8C13.7 -52.5 27.5 -46.8 32.2 -37.2Z" fill="#C62368"></path></g></g></svg>