<svg id="visual" viewBox="0 0 900 900" width="900" height="900" xmlns="http://www.w3.org/2000/svg" xmlns:xlink="http://www.w3.org/1999/xlink" version="1.1"><g stroke-width="1" stroke-linejoin="bevel"><path d="M477 407L517.5 462L531.5 384.5Z" fill="#ab2d63" stroke="#ab2d63"></path><path d="M531.5 384.5L447 352.5L477 407Z" fill="#672c64" stroke="#672c64"></path><path d="M447 352.5L383.5 423L477 407Z" fill="#672c64" stroke="#672c64"></path><path d="M477 407L383.5 423L517.5 462Z" fill="#001122" stroke="#001122"></path><path d="M531.5 384.5L525.5 284L447 352.5Z" fill="#f05b34" stroke="#f05b34"></path><path d="M474 599.5L540.5 557.5L517.5 462Z" fill="#f7770f" stroke="#f7770f"></path><path d="M655 476L650 369.5L531.5 384.5Z" fill="#f05b34" stroke="#f05b34"></path><path d="M655 476L531.5 384.5L517.5 462Z" fill="#46295a" stroke="#46295a"></path><path d="M531.5 384.5L650 369.5L525.5 284Z" fill="#c83459" stroke="#c83459"></path><path d="M540.5 557.5L655 476L517.5 462Z" fill="#46295a" stroke="#46295a"></path><path d="M383.5 423L474 599.5L517.5 462Z" fill="#28244b" stroke="#28244b"></path><path d="M525.5 284L399 247L447 352.5Z" fill="#c83459" stroke="#c83459"></path><path d="M447 352.5L351.5 271L383.5 423Z" fill="#0f1c37" stroke="#0f1c37"></path><path d="M399 247L351.5 271L447 352.5Z" fill="#f05b34" stroke="#f05b34"></path><path d="M717 537.5L735.5 487L655 476Z" fill="#c83459" stroke="#c83459"></path><path d="M655 476L762.5 381.5L650 369.5Z" fill="#ab2d63" stroke="#ab2d63"></path><path d="M717 537.5L655 476L540.5 557.5Z" fill="#ab2d63" stroke="#ab2d63"></path><path d="M611.5 683L717 537.5L540.5 557.5Z" fill="#28244b" stroke="#28244b"></path><path d="M351.5 271L283.5 383.5L383.5 423Z" fill="#672c64" stroke="#672c64"></path><path d="M383.5 423L352.5 628L474 599.5Z" fill="#c83459" stroke="#c83459"></path><path d="M283.5 383.5L279.5 503.5L383.5 423Z" fill="#ab2d63" stroke="#ab2d63"></path><path d="M352.5 628L445 661L474 599.5Z" fill="#672c64" stroke="#672c64"></path><path d="M474 599.5L611.5 683L540.5 557.5Z" fill="#672c64" stroke="#672c64"></path><path d="M735.5 487L762.5 381.5L655 476Z" fill="#672c64" stroke="#672c64"></path><path d="M650 369.5L699 166.5L525.5 284Z" fill="#e04349" stroke="#e04349"></path><path d="M279.5 503.5L352.5 628L383.5 423Z" fill="#0f1c37" stroke="#0f1c37"></path><path d="M445 661L611.5 683L474 599.5Z" fill="#c83459" stroke="#c83459"></path><path d="M535.5 811.5L638 691L611.5 683Z" fill="#ab2d63" stroke="#ab2d63"></path><path d="M611.5 683L638 691L717 537.5Z" fill="#c83459" stroke="#c83459"></path><path d="M717 537.5L803.5 509.5L735.5 487Z" fill="#0f1c37" stroke="#0f1c37"></path><path d="M735.5 487L803.5 509.5L762.5 381.5Z" fill="#28244b" stroke="#28244b"></path><path d="M806.5 719L803.5 509.5L717 537.5Z" fill="#0f1c37" stroke="#0f1c37"></path><path d="M900 322.5L759.5 224L762.5 381.5Z" fill="#e04349" stroke="#e04349"></path><path d="M762.5 381.5L759.5 224L650 369.5Z" fill="#672c64" stroke="#672c64"></path><path d="M525.5 284L540.5 67.5L399 247Z" fill="#f05b34" stroke="#f05b34"></path><path d="M759.5 224L699 166.5L650 369.5Z" fill="#ab2d63" stroke="#ab2d63"></path><path d="M119.5 580.5L262 616.5L279.5 503.5Z" fill="#28244b" stroke="#28244b"></path><path d="M279.5 503.5L262 616.5L352.5 628Z" fill="#0f1c37" stroke="#0f1c37"></path><path d="M352.5 628L408 752.5L445 661Z" fill="#e04349" stroke="#e04349"></path><path d="M351.5 271L243 243L283.5 383.5Z" fill="#e04349" stroke="#e04349"></path><path d="M283.5 383.5L177 437L279.5 503.5Z" fill="#8a2c67" stroke="#8a2c67"></path><path d="M310.5 134.5L243 243L351.5 271Z" fill="#f7770f" stroke="#f7770f"></path><path d="M310.5 134.5L351.5 271L399 247Z" fill="#e04349" stroke="#e04349"></path><path d="M759.5 224L734 173L699 166.5Z" fill="#672c64" stroke="#672c64"></path><path d="M165 350.5L177 437L283.5 383.5Z" fill="#ab2d63" stroke="#ab2d63"></path><path d="M281 760.5L408 752.5L352.5 628Z" fill="#ab2d63" stroke="#ab2d63"></path><path d="M445 661L535.5 811.5L611.5 683Z" fill="#f7770f" stroke="#f7770f"></path><path d="M431 62.5L310.5 134.5L399 247Z" fill="#e04349" stroke="#e04349"></path><path d="M728.5 88.5L540.5 67.5L699 166.5Z" fill="#c83459" stroke="#c83459"></path><path d="M699 166.5L540.5 67.5L525.5 284Z" fill="#28244b" stroke="#28244b"></path><path d="M136.5 239L165 350.5L243 243Z" fill="#f05b34" stroke="#f05b34"></path><path d="M243 243L165 350.5L283.5 383.5Z" fill="#c83459" stroke="#c83459"></path><path d="M540.5 67.5L431 62.5L399 247Z" fill="#001122" stroke="#001122"></path><path d="M638 691L729 731.5L717 537.5Z" fill="#28244b" stroke="#28244b"></path><path d="M535.5 811.5L729 731.5L638 691Z" fill="#672c64" stroke="#672c64"></path><path d="M177 437L119.5 580.5L279.5 503.5Z" fill="#8a2c67" stroke="#8a2c67"></path><path d="M165 350.5L128.5 434L177 437Z" fill="#e04349" stroke="#e04349"></path><path d="M408 752.5L535.5 811.5L445 661Z" fill="#f05b34" stroke="#f05b34"></path><path d="M900 619.5L900 497L803.5 509.5Z" fill="#0f1c37" stroke="#0f1c37"></path><path d="M803.5 509.5L900 497L762.5 381.5Z" fill="#f05b34" stroke="#f05b34"></path><path d="M900 124.5L728.5 88.5L734 173Z" fill="#ab2d63" stroke="#ab2d63"></path><path d="M900 193L734 173L759.5 224Z" fill="#28244b" stroke="#28244b"></path><path d="M734 173L728.5 88.5L699 166.5Z" fill="#e04349" stroke="#e04349"></path><path d="M900 497L900 322.5L762.5 381.5Z" fill="#28244b" stroke="#28244b"></path><path d="M262 616.5L281 760.5L352.5 628Z" fill="#f05b34" stroke="#f05b34"></path><path d="M449 900L570.5 900L535.5 811.5Z" fill="#f7770f" stroke="#f7770f"></path><path d="M207 719L281 760.5L262 616.5Z" fill="#f05b34" stroke="#f05b34"></path><path d="M838.5 821.5L806.5 719L729 731.5Z" fill="#c83459" stroke="#c83459"></path><path d="M729 731.5L806.5 719L717 537.5Z" fill="#28244b" stroke="#28244b"></path><path d="M118.5 143.5L136.5 239L243 243Z" fill="#672c64" stroke="#672c64"></path><path d="M165 350.5L66.5 315.5L128.5 434Z" fill="#e04349" stroke="#e04349"></path><path d="M728.5 88.5L573.5 0L540.5 67.5Z" fill="#ab2d63" stroke="#ab2d63"></path><path d="M540.5 67.5L573.5 0L431 62.5Z" fill="#28244b" stroke="#28244b"></path><path d="M0 522.5L119.5 580.5L128.5 434Z" fill="#0f1c37" stroke="#0f1c37"></path><path d="M128.5 434L119.5 580.5L177 437Z" fill="#001122" stroke="#001122"></path><path d="M119.5 580.5L207 719L262 616.5Z" fill="#001122" stroke="#001122"></path><path d="M806.5 719L900 619.5L803.5 509.5Z" fill="#f05b34" stroke="#f05b34"></path><path d="M363.5 0L244 80.5L310.5 134.5Z" fill="#c83459" stroke="#c83459"></path><path d="M310.5 134.5L244 80.5L243 243Z" fill="#f05b34" stroke="#f05b34"></path><path d="M363.5 0L310.5 134.5L431 62.5Z" fill="#ab2d63" stroke="#ab2d63"></path><path d="M806.5 719L900 629L900 619.5Z" fill="#28244b" stroke="#28244b"></path><path d="M573.5 0L395 0L431 62.5Z" fill="#672c64" stroke="#672c64"></path><path d="M207 719L288.5 804.5L281 760.5Z" fill="#46295a" stroke="#46295a"></path><path d="M281 760.5L288.5 804.5L408 752.5Z" fill="#001122" stroke="#001122"></path><path d="M900 322.5L900 193L759.5 224Z" fill="#8a2c67" stroke="#8a2c67"></path><path d="M395 0L363.5 0L431 62.5Z" fill="#672c64" stroke="#672c64"></path><path d="M0 252L66.5 315.5L136.5 239Z" fill="#0f1c37" stroke="#0f1c37"></path><path d="M136.5 239L66.5 315.5L165 350.5Z" fill="#f05b34" stroke="#f05b34"></path><path d="M728.5 88.5L709 0L573.5 0Z" fill="#c83459" stroke="#c83459"></path><path d="M801.5 0L709 0L728.5 88.5Z" fill="#c83459" stroke="#c83459"></path><path d="M449 900L535.5 811.5L408 752.5Z" fill="#672c64" stroke="#672c64"></path><path d="M535.5 811.5L719 900L729 731.5Z" fill="#28244b" stroke="#28244b"></path><path d="M357.5 900L449 900L408 752.5Z" fill="#28244b" stroke="#28244b"></path><path d="M244 80.5L118.5 143.5L243 243Z" fill="#28244b" stroke="#28244b"></path><path d="M168.5 0L118.5 143.5L244 80.5Z" fill="#8a2c67" stroke="#8a2c67"></path><path d="M900 193L900 124.5L734 173Z" fill="#c83459" stroke="#c83459"></path><path d="M838.5 821.5L900 735.5L806.5 719Z" fill="#46295a" stroke="#46295a"></path><path d="M806.5 719L900 735.5L900 629Z" fill="#c83459" stroke="#c83459"></path><path d="M174 900L357.5 900L288.5 804.5Z" fill="#28244b" stroke="#28244b"></path><path d="M288.5 804.5L357.5 900L408 752.5Z" fill="#46295a" stroke="#46295a"></path><path d="M0 648L112.5 727L119.5 580.5Z" fill="#e04349" stroke="#e04349"></path><path d="M119.5 580.5L112.5 727L207 719Z" fill="#e04349" stroke="#e04349"></path><path d="M207 719L135.5 813.5L288.5 804.5Z" fill="#0f1c37" stroke="#0f1c37"></path><path d="M900 124.5L801.5 0L728.5 88.5Z" fill="#0f1c37" stroke="#0f1c37"></path><path d="M719 900L838.5 821.5L729 731.5Z" fill="#28244b" stroke="#28244b"></path><path d="M66.5 315.5L0 442L128.5 434Z" fill="#f7770f" stroke="#f7770f"></path><path d="M0 327.5L0 442L66.5 315.5Z" fill="#28244b" stroke="#28244b"></path><path d="M570.5 900L719 900L535.5 811.5Z" fill="#28244b" stroke="#28244b"></path><path d="M0 252L0 327.5L66.5 315.5Z" fill="#c83459" stroke="#c83459"></path><path d="M0 442L0 522.5L128.5 434Z" fill="#46295a" stroke="#46295a"></path><path d="M118.5 143.5L0 252L136.5 239Z" fill="#28244b" stroke="#28244b"></path><path d="M363.5 0L173 0L244 80.5Z" fill="#0f1c37" stroke="#0f1c37"></path><path d="M118.5 143.5L0 56.5L0 252Z" fill="#46295a" stroke="#46295a"></path><path d="M0 826.5L135.5 813.5L112.5 727Z" fill="#ab2d63" stroke="#ab2d63"></path><path d="M112.5 727L135.5 813.5L207 719Z" fill="#672c64" stroke="#672c64"></path><path d="M173 0L168.5 0L244 80.5Z" fill="#672c64" stroke="#672c64"></path><path d="M719 900L783.5 900L838.5 821.5Z" fill="#28244b" stroke="#28244b"></path><path d="M838.5 821.5L900 900L900 735.5Z" fill="#001122" stroke="#001122"></path><path d="M0 522.5L0 648L119.5 580.5Z" fill="#ab2d63" stroke="#ab2d63"></path><path d="M900 124.5L900 0L801.5 0Z" fill="#28244b" stroke="#28244b"></path><path d="M135.5 900L174 900L135.5 813.5Z" fill="#c83459" stroke="#c83459"></path><path d="M135.5 813.5L174 900L288.5 804.5Z" fill="#0f1c37" stroke="#0f1c37"></path><path d="M0 826.5L135.5 900L135.5 813.5Z" fill="#f7770f" stroke="#f7770f"></path><path d="M783.5 900L900 900L838.5 821.5Z" fill="#672c64" stroke="#672c64"></path><path d="M168.5 0L0 56.5L118.5 143.5Z" fill="#8a2c67" stroke="#8a2c67"></path><path d="M0 648L0 826.5L112.5 727Z" fill="#28244b" stroke="#28244b"></path><path d="M168.5 0L0 0L0 56.5Z" fill="#8a2c67" stroke="#8a2c67"></path><path d="M0 826.5L0 900L135.5 900Z" fill="#001122" stroke="#001122"></path></g></svg>