<svg id="visual" viewBox="0 0 900 600" width="900" height="600" xmlns="http://www.w3.org/2000/svg" xmlns:xlink="http://www.w3.org/1999/xlink" version="1.1"><path d="M0 103L225 43L450 103L675 67L900 13L900 0L675 0L450 0L225 0L0 0Z" fill="#000066"></path><path d="M0 343L225 223L450 127L675 145L900 115L900 11L675 65L450 101L225 41L0 101Z" fill="#98005e"></path><path d="M0 421L225 265L450 151L675 205L900 115L900 113L675 143L450 125L225 221L0 341Z" fill="#de3541"></path><path d="M0 469L225 295L450 403L675 379L900 301L900 113L675 203L450 149L225 263L0 419Z" fill="#f7770f"></path><path d="M0 511L225 349L450 427L675 445L900 385L900 299L675 377L450 401L225 293L0 467Z" fill="#f7770f"></path><path d="M0 541L225 547L450 523L675 457L900 445L900 383L675 443L450 425L225 347L0 509Z" fill="#de3541"></path><path d="M0 547L225 595L450 553L675 487L900 469L900 443L675 455L450 521L225 545L0 539Z" fill="#98005e"></path><path d="M0 601L225 601L450 601L675 601L900 601L900 467L675 485L450 551L225 593L0 545Z" fill="#000066"></path></svg>