<svg id="visual" viewBox="0 0 900 600" width="900" height="600" xmlns="http://www.w3.org/2000/svg" xmlns:xlink="http://www.w3.org/1999/xlink" version="1.1"><rect x="0" y="0" width="900" height="600" fill="#001220"></rect><path d="M244 600L244 583.3C244 566.7 244 533.3 240.5 500C237 466.7 230 433.3 231 400C232 366.7 241 333.3 230.2 300C219.3 266.7 188.7 233.3 162.3 200C136 166.7 114 133.3 141 100C168 66.7 244 33.3 282 16.7L320 0L900 0L900 16.7C900 33.3 900 66.7 900 100C900 133.3 900 166.7 900 200C900 233.3 900 266.7 900 300C900 333.3 900 366.7 900 400C900 433.3 900 466.7 900 500C900 533.3 900 566.7 900 583.3L900 600Z" fill="#001122"></path><path d="M234 600L244.2 583.3C254.3 566.7 274.7 533.3 302.2 500C329.7 466.7 364.3 433.3 379.2 400C394 366.7 389 333.3 371.8 300C354.7 266.7 325.3 233.3 310.5 200C295.7 166.7 295.3 133.3 286 100C276.7 66.7 258.3 33.3 249.2 16.7L240 0L900 0L900 16.7C900 33.3 900 66.7 900 100C900 133.3 900 166.7 900 200C900 233.3 900 266.7 900 300C900 333.3 900 366.7 900 400C900 433.3 900 466.7 900 500C900 533.3 900 566.7 900 583.3L900 600Z" fill="#28244b"></path><path d="M409 600L408 583.3C407 566.7 405 533.3 406.7 500C408.3 466.7 413.7 433.3 406.5 400C399.3 366.7 379.7 333.3 399.3 300C419 266.7 478 233.3 504.7 200C531.3 166.7 525.7 133.3 495.8 100C466 66.7 412 33.3 385 16.7L358 0L900 0L900 16.7C900 33.3 900 66.7 900 100C900 133.3 900 166.7 900 200C900 233.3 900 266.7 900 300C900 333.3 900 366.7 900 400C900 433.3 900 466.7 900 500C900 533.3 900 566.7 900 583.3L900 600Z" fill="#672c64"></path><path d="M549 600L550.2 583.3C551.3 566.7 553.7 533.3 548.7 500C543.7 466.7 531.3 433.3 539.7 400C548 366.7 577 333.3 568.2 300C559.3 266.7 512.7 233.3 514.2 200C515.7 166.7 565.3 133.3 576 100C586.7 66.7 558.3 33.3 544.2 16.7L530 0L900 0L900 16.7C900 33.3 900 66.7 900 100C900 133.3 900 166.7 900 200C900 233.3 900 266.7 900 300C900 333.3 900 366.7 900 400C900 433.3 900 466.7 900 500C900 533.3 900 566.7 900 583.3L900 600Z" fill="#ab2d63"></path><path d="M587 600L601.8 583.3C616.7 566.7 646.3 533.3 663 500C679.7 466.7 683.3 433.3 672 400C660.7 366.7 634.3 333.3 641.5 300C648.7 266.7 689.3 233.3 695.2 200C701 166.7 672 133.3 657.8 100C643.7 66.7 644.3 33.3 644.7 16.7L645 0L900 0L900 16.7C900 33.3 900 66.7 900 100C900 133.3 900 166.7 900 200C900 233.3 900 266.7 900 300C900 333.3 900 366.7 900 400C900 433.3 900 466.7 900 500C900 533.3 900 566.7 900 583.3L900 600Z" fill="#e04349"></path><path d="M810 600L793.7 583.3C777.3 566.7 744.7 533.3 733.2 500C721.7 466.7 731.3 433.3 739.2 400C747 366.7 753 333.3 751.2 300C749.3 266.7 739.7 233.3 747.7 200C755.7 166.7 781.3 133.3 783 100C784.7 66.7 762.3 33.3 751.2 16.7L740 0L900 0L900 16.7C900 33.3 900 66.7 900 100C900 133.3 900 166.7 900 200C900 233.3 900 266.7 900 300C900 333.3 900 366.7 900 400C900 433.3 900 466.7 900 500C900 533.3 900 566.7 900 583.3L900 600Z" fill="#f7770f"></path></svg>